<svg width="1920" height="525" viewBox="0 0 1920 525" fill="none" xmlns="http://www.w3.org/2000/svg">
<g opacity="0.5">
<path d="M-0.000488281 228C236 228 244.474 285.347 508.237 285.347C772 285.347 915.966 340.909 1059.5 340.909C1203.03 340.909 1347 275.967 1504.5 270.994C1662 266.02 1750.23 340.909 1920 340.909L1920 525H-0.000488281V228Z" fill="#ECEBFC"/>
<path fill-rule="evenodd" clip-rule="evenodd" d="M96.4283 65.7002C90.6935 54.252 120.281 6.07608 132.853 1.58257C146.195 -3.18636 151.969 4.34312 151.969 4.34312C151.969 4.34312 167.406 2.16759 171.059 16.7034C174.461 30.2392 117.525 68.6176 100.881 68.1405C95.3136 73.7437 89.6933 80.6001 83.9755 88.4559C82.7748 90.6729 81.5087 92.4891 80.198 93.7676C78.222 96.6075 76.2335 99.5583 74.2305 102.61C93.5371 88.7863 140.629 72.2414 152.903 75.2951C168.846 79.2613 167.629 89.7582 167.629 89.7582C167.629 89.7582 183.246 97.4058 174.207 112.99C165.408 128.162 74.7784 127.006 66.5238 114.706C66.3334 115.013 66.1428 115.32 65.9521 115.628C57.7613 128.871 49.4104 143.313 40.7212 158.34L40.7209 158.34L40.7196 158.343C38.5407 162.111 36.3405 165.916 34.1162 169.748C56.7571 155.231 97.5622 139.609 109.475 142.022C126.761 145.522 126.089 156.778 126.089 156.778C126.089 156.778 143.249 164.221 134.517 181.264C126.533 196.849 40.4733 200.374 22.1329 190.181C21.3554 191.488 20.5746 192.797 19.7904 194.106C8.49111 212.973 -3.43941 231.875 -16.1991 249.474C4.07244 236.963 64.6316 225.475 77.8408 231.214C93.8611 238.174 90.2311 249.191 90.2311 249.191C90.2311 249.191 105.086 260.032 92.029 275.155C79.1943 290.021 -18.3856 272.861 -22.6842 258.205C-26.4837 263.193 -30.3564 268.052 -34.3071 272.749C-54.0846 296.259 -75.9368 315.838 -100.518 327.161C-101.795 327.75 -103.266 327.219 -103.803 325.976C-104.34 324.733 -103.74 323.248 -102.462 322.659C-78.8714 311.792 -57.6178 292.858 -38.1009 269.657C-18.5921 246.467 -0.936623 219.157 15.5055 191.703C16.5818 189.906 17.6536 188.107 18.7209 186.308C18.3184 183.778 20.3473 180.657 24.0564 177.252C26.7372 172.674 29.3896 168.108 32.0151 163.576C32.0013 163.577 31.9874 163.579 31.9736 163.58L31.9597 163.581C16.2557 165.001 -17.888 87.4001 -3.98454 74.707C9.9189 62.0138 23.5438 72.2174 23.5438 72.2174C23.5438 72.2174 34.5607 67.6594 44.2871 79.3779C50.5474 86.9203 50.1479 119.048 44.8808 141.367C50.6126 131.523 56.2165 122.037 61.7065 113.161C65.6228 106.83 69.5065 100.765 73.3693 95.0544C60.8311 87.6804 43.4749 31.8433 54.6411 23.2452C66.6179 14.0229 76.5697 22.9323 76.5697 22.9323C76.5697 22.9323 85.6263 19.9841 92.3811 29.8592C96.2507 35.5164 94.4198 56.2928 89.7978 73.0426C92.0085 70.4299 94.2179 67.9769 96.4283 65.7002ZM1948.72 103.406C1938.57 90.3667 1937.94 32.3506 1946.17 22.1665C1955.33 10.8295 1964.75 15.6608 1964.75 15.6608C1964.75 15.6608 1977.25 5.93635 1988.78 18.9126C1999.72 31.2296 1969.58 100.273 1954.77 105.67C1954.78 105.867 1954.77 106.067 1954.74 106.27C1953.4 116.185 1950.76 125.494 1947.05 134.322C1960.48 117.367 1984.97 96.8701 1994.13 96.306C2008 95.4523 2010.57 105.148 2010.57 105.148C2010.57 105.148 2025.42 107.667 2023.54 124.054C2021.65 140.441 1946.08 165.243 1938.68 154.458C1938.2 153.75 1937.95 152.887 1937.93 151.893C1930.91 163.234 1922.12 173.826 1912.14 183.999C1910.69 185.476 1909.21 186.946 1907.71 188.41C1926.78 178.803 1950.42 171.156 1958.27 173.496C1972.51 177.746 1971.51 188.425 1971.51 188.425C1971.51 188.425 1985.5 196.421 1977.57 212.183C1969.72 227.802 1886.16 225.076 1881.29 211.836C1870.82 220.467 1859.77 229.05 1848.5 237.795L1848.5 237.796L1848.49 237.804C1846.19 239.585 1843.89 241.373 1841.58 243.169C1865.73 234.778 1904.79 230.092 1914.42 235.608C1928.66 243.759 1924.9 254.986 1924.9 254.986C1924.9 254.986 1937.91 267.098 1925.43 282.042C1913.32 296.552 1827.53 273.843 1822.27 258.383C1794.28 280.837 1766.53 305.407 1743.97 335.443C1746.62 341.195 1748.54 346.629 1749.16 351.603C1749.4 353.521 1748.04 355.27 1746.12 355.509C1744.21 355.748 1742.46 354.387 1742.22 352.469C1741.84 349.426 1740.8 345.947 1739.19 342C1720.56 368.369 1705.98 398.909 1698.54 435.717C1698.16 437.611 1696.32 438.837 1694.42 438.454C1692.53 438.072 1691.3 436.225 1691.68 434.331C1699.65 394.865 1715.62 362.434 1735.84 334.673C1733.22 329.433 1729.98 323.699 1726.36 317.447C1725.87 316.597 1725.37 315.738 1724.87 314.87L1724.45 314.153L1723.51 312.53C1718.85 304.5 1713.76 295.742 1708.83 286.346C1695.54 294.639 1635.75 293.324 1630.08 281.117C1623.85 267.687 1635.85 261.444 1635.85 261.444C1635.85 261.444 1635.31 252.483 1647.43 249.38C1655.87 247.218 1685.18 259.225 1701.06 270.501C1700.46 269.194 1699.88 267.876 1699.3 266.549C1694.98 256.592 1691.17 246.054 1688.42 234.994C1677.99 238.133 1631.5 206.531 1633.31 194.622C1635.2 182.216 1646.6 183.432 1646.6 183.432C1646.6 183.432 1650.41 176.85 1660.42 180.336C1666.15 182.329 1677.31 197.624 1684.41 211.557C1683.07 196.752 1683.98 181.18 1688.19 164.956C1677.6 162.756 1650.16 130.887 1654.64 122.168C1659.51 112.7 1668.61 115.915 1668.61 115.915C1668.61 115.915 1673.51 111.447 1680.86 116.189C1685.55 119.214 1691.42 136.722 1693 149.931C1695.21 144.124 1697.87 138.241 1701.01 132.288C1700.6 119.635 1720.78 87.6007 1729.49 85.3379C1739.45 82.7516 1743.6 89.601 1743.6 89.601C1743.6 89.601 1755.07 89.3847 1757.55 101.835C1759.76 113.005 1720.14 137.556 1706.22 137.449C1699.05 151.46 1694.7 165.046 1692.54 178.158C1700.4 166.178 1717.11 149.473 1723.29 148.15C1732.13 146.253 1733.94 151.968 1733.94 151.968C1733.94 151.968 1743.46 152.051 1742.55 162.325C1741.71 171.688 1701.89 191.407 1691.13 190.352C1689.88 208.961 1692.8 226.535 1697.91 242.924C1698.29 225.753 1703.06 201.046 1707.76 195.837C1714.95 187.861 1720.37 192.171 1720.37 192.171C1720.37 192.171 1729.49 185.646 1735.26 196.279C1740.6 206.128 1714.53 254.293 1703.91 259.475C1704.5 260.914 1705.11 262.343 1705.72 263.761C1712.97 280.444 1721.74 295.55 1729.56 309.009L1729.61 309.097L1730.39 310.438C1731.08 311.62 1731.76 312.788 1732.42 313.943C1735.36 319.019 1738.11 323.865 1740.51 328.437C1755.48 308.984 1772.51 291.851 1790.2 276.16C1776.56 272.456 1762.03 191.678 1776.15 181.767C1790.47 171.71 1800.34 184.277 1800.34 184.277C1800.34 184.277 1810.68 181.755 1816.91 195.117C1821.62 205.22 1812.18 247.25 1801.32 266.54C1810.4 258.866 1819.58 251.516 1828.67 244.376C1833.94 240.233 1839.18 236.166 1844.35 232.15L1844.36 232.144C1847.28 229.876 1850.18 227.624 1853.06 225.384C1840.02 223.724 1825.76 145.488 1839.28 135.994C1852.83 126.481 1862.16 138.369 1862.16 138.369C1862.16 138.369 1871.94 135.983 1877.84 148.623C1882.52 158.651 1872.44 201.932 1861.56 218.722C1878.27 205.543 1893.85 192.636 1907.14 179.096C1908 178.224 1908.84 177.349 1909.68 176.473C1897.41 175.329 1872.81 108.159 1883.44 97.5295C1894.23 86.7436 1904.59 96.0522 1904.59 96.0522C1904.59 96.0522 1913.09 92.3341 1920.45 102.872C1926.19 111.095 1924.09 150.783 1917.15 168.23C1933.42 149.313 1944.59 129.059 1947.8 105.331C1947.9 104.581 1948.24 103.919 1948.72 103.406ZM370.306 120.033C370.561 120.504 370.711 121.041 370.724 121.613C370.982 132.461 371.627 142.938 372.608 153.039C375.621 141.567 382.984 126.257 387.3 123.877C393.963 120.203 397.37 124.399 397.37 124.399C397.37 124.399 405.261 122.164 407.949 130.714C410.479 138.761 382.414 165.796 374.067 165.953C375.346 175.86 376.946 185.381 378.812 194.511C382.591 182.964 389.494 169.356 393.539 166.981C400.422 162.939 403.767 167.239 403.767 167.239C403.767 167.239 411.857 164.671 414.346 173.554C416.428 180.987 393.483 204.844 382.398 210.329C385.832 224.09 389.856 236.864 394.251 248.638C394.733 235.321 405.56 209.667 412.112 206.594C420.48 202.67 425.246 208.036 425.246 208.036C425.246 208.036 435.326 205.958 439.506 216.549C443.573 226.852 406.764 259.158 397.272 256.433C399.155 261.117 401.093 265.63 403.071 269.97C408.696 269.413 416.367 267.752 425.443 265.002C436.045 261.791 448.401 257.146 461.371 251.22C456.684 244.645 471.244 200.944 480.306 199.722C489.636 198.464 490.855 207.508 490.855 207.508C490.855 207.508 496.323 209.008 495.641 217.477C495.231 222.567 485.277 235.507 476.093 244.057C487.163 238.333 498.337 231.771 508.956 224.467C502.761 221.506 506.538 179.701 514.509 177.134C522.494 174.563 525.451 182.09 525.451 182.09C525.451 182.09 530.596 182.493 531.753 189.834C532.498 194.557 525.446 208.714 518.659 217.459C527.562 210.698 535.891 203.396 543.209 195.615C543.528 195.276 543.919 195.046 544.337 194.926C545.104 185.245 562.68 162.047 569.417 160.734C577.148 159.227 579.777 164.61 579.777 164.61C579.777 164.61 588.471 164.968 589.404 174.522C590.271 183.395 556.117 201.099 546.847 199.045C542.952 203.186 538.786 207.188 534.41 211.046C544.758 207.494 563.147 205.803 567.63 208.418C573.988 212.126 572.471 216.9 572.471 216.9C572.471 216.9 578.341 222.294 573.032 228.542C567.894 234.589 530.114 223.686 527.405 216.958C520.813 222.29 513.854 227.311 506.714 231.997C516.32 230.237 527.129 229.833 530.424 231.755C536.782 235.463 535.265 240.237 535.265 240.237C535.265 240.237 541.134 245.631 535.826 251.879C531.005 257.553 497.446 248.304 491.085 241.583C482.702 246.391 474.255 250.735 466.025 254.578C464.223 255.42 462.43 256.238 460.649 257.032C473.527 258.089 492.278 263.678 495.851 268.179C501.221 274.943 497.528 279.515 497.528 279.515C497.528 279.515 501.645 287.913 493.179 292.48C485.478 296.635 452.642 272.135 448.64 262.107C440.911 265.191 433.573 267.764 426.893 269.788C418.582 272.305 411.192 274.003 405.297 274.749C408.274 281.001 411.325 286.871 414.4 292.358C425.172 311.576 436.219 326.05 445.349 335.67C449.919 340.487 453.96 344.035 457.197 346.35C458.818 347.508 460.179 348.315 461.259 348.82C462.401 349.354 462.967 349.424 463.078 349.424C465.011 349.424 466.578 350.992 466.578 352.924C466.578 354.857 465.011 356.424 463.078 356.424C461.471 356.424 459.813 355.871 458.295 355.161C456.713 354.422 454.975 353.365 453.126 352.044C449.426 349.399 445.05 345.525 440.271 340.489C430.701 330.404 419.318 315.449 408.294 295.78C404.59 289.173 400.925 282.03 397.382 274.356C397.047 273.986 396.821 273.515 396.756 272.993C395.408 270.037 394.077 267.003 392.77 263.893C390.173 262.684 386.941 261.665 383.104 260.758C378.056 259.563 372.149 258.601 365.566 257.606C364.171 257.395 362.747 257.183 361.298 256.968L361.187 256.951L361.127 256.942L361.126 256.942C352.962 255.727 343.973 254.39 334.646 252.475C334.771 252.726 334.857 252.986 334.904 253.255C336.47 262.355 285.532 287.095 276.444 279.74C267.356 272.384 273.699 263.787 273.699 263.787C273.699 263.787 270.202 257.621 277.717 251.211C281.78 247.745 297.713 245.964 311.738 246.498C300.173 242.704 288.627 237.521 277.901 230.14C277.324 238.033 232.818 253.193 226.004 246.146C219.117 239.024 225.337 232.445 225.337 232.445C225.337 232.445 223.031 226.898 230.012 222.281C235.117 218.904 258.165 220.354 270.331 224.435C262.273 217.789 254.836 209.675 248.406 199.703C241.812 205.435 209.207 208.442 205.665 201.623C201.792 194.164 208.021 189.773 208.021 189.773C208.021 189.773 207.387 184.572 213.797 182.009C218.223 180.24 234.211 185.325 243.244 190.869C241.254 187.101 239.393 183.105 237.678 178.865C228.988 173.742 211.564 146.464 215.478 140.011C219.933 132.665 226.849 136.367 226.849 136.367C226.849 136.367 230.999 133.195 236.436 137.973C241.221 142.178 245.914 169.627 242.545 177.559C248.008 190.885 254.962 201.669 262.908 210.448C258.693 201.564 254.863 182.981 256.535 178.519C258.772 172.546 262.702 173.748 262.702 173.748C262.702 173.748 266.322 168.156 271.825 172.775C277.217 177.302 272.523 213.179 267.435 215.136C277.854 225.249 289.689 232.356 301.945 237.52C295.628 228.313 288.333 209.736 289.389 204.667C290.844 197.675 295.548 198.197 295.548 198.197C295.548 198.197 298.651 191.343 305.776 195.288C312.072 198.774 313.693 231.821 309.96 240.613C314.018 242.045 318.099 243.293 322.167 244.394C333.836 247.554 345.35 249.495 355.945 251.109C345.057 242.473 330.602 223.77 330.507 217.377C330.372 208.404 336.677 207.092 336.677 207.092C336.677 207.092 338.738 197.607 349.207 199.397C358.708 201.022 370.849 242.014 367.674 252.869C373.733 253.795 379.349 254.731 384.256 255.892C386.335 256.384 388.316 256.923 390.173 257.53C382.81 238.957 376.322 217.814 371.599 194.157C363.023 198.177 319.34 178.576 319.083 168.284C318.814 157.522 328.628 156.837 328.628 156.837C328.628 156.837 330.862 150.704 339.842 152.146C346.04 153.141 361.858 169.333 369.272 181.416C367.212 169.003 365.644 155.948 364.684 142.26C358.226 147.531 314.066 127.993 313.813 117.869C313.556 107.568 322.949 106.912 322.949 106.912C322.949 106.912 325.088 101.042 333.682 102.422C340.409 103.502 358.971 123.28 364.226 134.825C363.999 130.536 363.831 126.187 363.726 121.779C363.712 121.172 363.853 120.597 364.113 120.092C354.738 111.111 342.648 67.2086 350.691 60.3825C359.658 52.7715 367.205 60.3826 367.205 60.3826C367.205 60.3826 374.009 58.0123 379.153 66.397C383.719 73.8373 378.191 111.617 370.306 120.033ZM-13.3314 231.379C2.81184 227.803 -3.00018 153.277 -15.204 142.431C-27.4077 131.584 -38.1092 137.785 -38.1092 137.785C-38.1092 137.785 -54.117 129.032 -66.4074 144.054C-78.6978 159.075 -29.4746 234.955 -13.3314 231.379Z" fill="#ECEBFC"/>
</g>
</svg>
