<svg width="48" height="49" viewBox="0 0 48 49" fill="none" xmlns="http://www.w3.org/2000/svg">
<path d="M37.9999 24.7357C37.9999 23.5846 37.9046 22.7446 37.6983 21.8735H24.2856V27.069H32.1586C31.9999 28.3602 31.1428 30.3046 29.238 31.6112L29.2113 31.7852L33.4521 35.0048L33.7459 35.0335C36.4443 32.5913 37.9999 28.9979 37.9999 24.7357" fill="#4285F4"/>
<path d="M24.2848 38.4248C28.1419 38.4248 31.3799 37.1803 33.7451 35.0337L29.2372 31.6113C28.0308 32.4358 26.4118 33.0114 24.2848 33.0114C20.5071 33.0114 17.3008 30.5692 16.1578 27.1936L15.9903 27.2075L11.5806 30.552L11.5229 30.7091C13.8721 35.2825 18.6975 38.4248 24.2848 38.4248Z" fill="#34A853"/>
<path d="M16.1587 27.1936C15.8571 26.3225 15.6825 25.3891 15.6825 24.4247C15.6825 23.4602 15.8571 22.5269 16.1428 21.6558L16.1348 21.4703L11.6699 18.0721L11.5238 18.1402C10.5556 20.038 10 22.1692 10 24.4247C10 26.6803 10.5556 28.8113 11.5238 30.7091L16.1587 27.1936" fill="#FBBC05"/>
<path d="M24.2849 15.8381C26.9674 15.8381 28.7769 16.9736 29.8087 17.9226L33.8404 14.0648C31.3643 11.8093 28.142 10.4248 24.2849 10.4248C18.6975 10.4248 13.8721 13.567 11.5229 18.1403L16.142 21.6559C17.3008 18.2803 20.5071 15.8381 24.2849 15.8381" fill="#EB4335"/>
</svg>
