<svg width="48" height="49" viewBox="0 0 48 49" fill="none" xmlns="http://www.w3.org/2000/svg">
<path d="M45.0021 24.8912C45.0021 23.1645 44.8591 21.9045 44.5497 20.5979H24.4307V28.3911H36.2401C36.0021 30.3279 34.7164 33.2445 31.8592 35.2044L31.8191 35.4653L38.1804 40.2948L38.6211 40.3379C42.6686 36.6745 45.0021 31.2845 45.0021 24.8912Z" fill="#4285F4"/>
<path d="M24.4295 45.4248C30.2151 45.4248 35.0721 43.5581 38.6199 40.3381L31.8579 35.2046C30.0485 36.4413 27.6198 37.3046 24.4295 37.3046C18.7628 37.3046 13.9534 33.6414 12.2389 28.578L11.9876 28.5989L5.37312 33.6156L5.28662 33.8513C8.81038 40.7113 16.0485 45.4248 24.4295 45.4248Z" fill="#34A853"/>
<path d="M12.2399 28.5781C11.7876 27.2715 11.5258 25.8714 11.5258 24.4248C11.5258 22.978 11.7876 21.5781 12.2161 20.2714L12.2042 19.9931L5.50674 14.8959L5.28761 14.998C3.83529 17.8447 3.00195 21.0415 3.00195 24.4248C3.00195 27.8081 3.83529 31.0047 5.28761 33.8514L12.2399 28.5781Z" fill="#FBBC05"/>
<path d="M24.4296 11.5447C28.4533 11.5447 31.1676 13.2481 32.7152 14.6715L38.7628 8.8848C35.0487 5.50148 30.2152 3.4248 24.4296 3.4248C16.0485 3.4248 8.8104 8.1381 5.28662 14.998L12.2152 20.2715C13.9534 15.2081 18.7629 11.5447 24.4296 11.5447Z" fill="#EB4335"/>
</svg>
