<svg width="364" height="446" viewBox="0 0 364 446" fill="none" xmlns="http://www.w3.org/2000/svg">
<g filter="url(#filter0_d_2436_1599)">
<rect x="23" y="14" width="318" height="400" rx="30" fill="url(#paint0_linear_2436_1599)" fill-opacity="0.8" shape-rendering="crispEdges"/>
<rect x="23" y="14" width="318" height="400" rx="30" stroke="white" stroke-width="5" shape-rendering="crispEdges"/>
<circle cx="182" cy="105.5" r="52.5" fill="url(#paint1_radial_2436_1599)" stroke="white" stroke-width="5"/>
<circle cx="156.5" cy="111" r="9.5" fill="#FFC7E2"/>
<circle cx="207.5" cy="111" r="9.5" fill="#FFC7E2"/>
<path d="M198.084 102.026C202.346 103.484 206.234 106.225 206.585 104.969C206.937 103.713 205.648 101.152 201.387 99.6942C197.125 98.2368 191.505 98.4353 191.153 99.6913C190.802 100.947 193.823 100.569 198.084 102.026Z" fill="#252525"/>
<path d="M164.078 98.823C159.722 99.8889 158.232 102.525 158.49 103.809C158.748 105.093 161.373 102.685 165.729 101.619C170.084 100.553 174.52 101.232 174.262 99.9489C174.005 98.6653 168.433 97.757 164.078 98.823Z" fill="#252525"/>
<path d="M171 114.5L183 118.5L195 114.5" stroke="black" stroke-width="3" stroke-linecap="round" stroke-linejoin="round"/>
<path d="M154.145 177.46C154.825 177.46 155.438 177.593 155.985 177.86C156.531 178.127 156.991 178.527 157.365 179.06H157.465L157.705 177.66H159.805V188.58C159.805 189.607 159.611 190.467 159.225 191.16C158.838 191.867 158.258 192.4 157.485 192.76C156.711 193.12 155.745 193.3 154.585 193.3C153.811 193.3 153.098 193.247 152.445 193.14C151.791 193.047 151.171 192.88 150.585 192.64V190.56C150.998 190.733 151.425 190.88 151.865 191C152.318 191.133 152.785 191.233 153.265 191.3C153.745 191.367 154.238 191.4 154.745 191.4C155.571 191.4 156.198 191.167 156.625 190.7C157.065 190.233 157.285 189.567 157.285 188.7V188.42C157.285 188.22 157.291 187.987 157.305 187.72C157.331 187.453 157.351 187.24 157.365 187.08H157.285C156.911 187.64 156.458 188.053 155.925 188.32C155.391 188.573 154.778 188.7 154.085 188.7C152.765 188.7 151.731 188.207 150.985 187.22C150.238 186.233 149.865 184.86 149.865 183.1C149.865 181.913 150.031 180.9 150.365 180.06C150.711 179.22 151.205 178.58 151.845 178.14C152.485 177.687 153.251 177.46 154.145 177.46ZM154.805 179.52C154.298 179.52 153.865 179.66 153.505 179.94C153.158 180.207 152.891 180.607 152.705 181.14C152.531 181.673 152.445 182.34 152.445 183.14C152.445 184.313 152.645 185.2 153.045 185.8C153.445 186.4 154.045 186.7 154.845 186.7C155.298 186.7 155.685 186.647 156.005 186.54C156.325 186.42 156.585 186.233 156.785 185.98C156.998 185.713 157.158 185.38 157.265 184.98C157.371 184.567 157.425 184.073 157.425 183.5V183.12C157.425 182.253 157.331 181.56 157.145 181.04C156.958 180.507 156.671 180.12 156.285 179.88C155.911 179.64 155.418 179.52 154.805 179.52ZM172.644 177.66V188.5H170.664L170.324 187.1H170.204C169.978 187.473 169.684 187.78 169.324 188.02C168.964 188.247 168.571 188.413 168.144 188.52C167.718 188.64 167.278 188.7 166.824 188.7C166.024 188.7 165.331 188.56 164.744 188.28C164.158 188 163.711 187.573 163.404 187C163.098 186.413 162.944 185.66 162.944 184.74V177.66H165.464V184.24C165.464 185.04 165.624 185.647 165.944 186.06C166.264 186.46 166.771 186.66 167.464 186.66C168.144 186.66 168.678 186.52 169.064 186.24C169.451 185.947 169.724 185.527 169.884 184.98C170.044 184.433 170.124 183.76 170.124 182.96V177.66H172.644ZM180.176 177.46C181.576 177.46 182.636 177.767 183.356 178.38C184.09 178.98 184.456 179.927 184.456 181.22V188.5H182.676L182.176 187H182.096C181.79 187.387 181.47 187.713 181.136 187.98C180.816 188.233 180.443 188.413 180.016 188.52C179.603 188.64 179.096 188.7 178.496 188.7C177.856 188.7 177.276 188.58 176.756 188.34C176.25 188.1 175.85 187.733 175.556 187.24C175.263 186.733 175.116 186.1 175.116 185.34C175.116 184.22 175.523 183.38 176.336 182.82C177.163 182.247 178.41 181.933 180.076 181.88L181.956 181.82V181.28C181.956 180.587 181.79 180.093 181.456 179.8C181.123 179.507 180.656 179.36 180.056 179.36C179.51 179.36 178.983 179.44 178.476 179.6C177.97 179.76 177.476 179.947 176.996 180.16L176.196 178.4C176.73 178.12 177.336 177.893 178.016 177.72C178.71 177.547 179.43 177.46 180.176 177.46ZM180.636 183.42C179.53 183.46 178.763 183.653 178.336 184C177.91 184.333 177.696 184.787 177.696 185.36C177.696 185.867 177.85 186.233 178.156 186.46C178.463 186.687 178.856 186.8 179.336 186.8C180.07 186.8 180.69 186.593 181.196 186.18C181.703 185.753 181.956 185.127 181.956 184.3V183.38L180.636 183.42ZM191.934 177.46C193.334 177.46 194.394 177.767 195.114 178.38C195.847 178.98 196.214 179.927 196.214 181.22V188.5H194.434L193.934 187H193.854C193.547 187.387 193.227 187.713 192.894 187.98C192.574 188.233 192.201 188.413 191.774 188.52C191.361 188.64 190.854 188.7 190.254 188.7C189.614 188.7 189.034 188.58 188.514 188.34C188.007 188.1 187.607 187.733 187.314 187.24C187.021 186.733 186.874 186.1 186.874 185.34C186.874 184.22 187.281 183.38 188.094 182.82C188.921 182.247 190.167 181.933 191.834 181.88L193.714 181.82V181.28C193.714 180.587 193.547 180.093 193.214 179.8C192.881 179.507 192.414 179.36 191.814 179.36C191.267 179.36 190.741 179.44 190.234 179.6C189.727 179.76 189.234 179.947 188.754 180.16L187.954 178.4C188.487 178.12 189.094 177.893 189.774 177.72C190.467 177.547 191.187 177.46 191.934 177.46ZM192.394 183.42C191.287 183.46 190.521 183.653 190.094 184C189.667 184.333 189.454 184.787 189.454 185.36C189.454 185.867 189.607 186.233 189.914 186.46C190.221 186.687 190.614 186.8 191.094 186.8C191.827 186.8 192.447 186.593 192.954 186.18C193.461 185.753 193.714 185.127 193.714 184.3V183.38L192.394 183.42ZM201.892 177.66V188.5H199.372V177.66H201.892ZM200.632 173.48C201.005 173.48 201.332 173.58 201.612 173.78C201.892 173.967 202.032 174.307 202.032 174.8C202.032 175.28 201.892 175.627 201.612 175.84C201.332 176.04 201.005 176.14 200.632 176.14C200.245 176.14 199.912 176.04 199.632 175.84C199.365 175.627 199.232 175.28 199.232 174.8C199.232 174.307 199.365 173.967 199.632 173.78C199.912 173.58 200.245 173.48 200.632 173.48ZM209.474 177.46C210.447 177.46 211.281 177.66 211.974 178.06C212.681 178.447 213.227 179.007 213.614 179.74C214.001 180.46 214.194 181.34 214.194 182.38V183.66H207.034C207.061 184.647 207.334 185.413 207.854 185.96C208.374 186.493 209.094 186.76 210.014 186.76C210.721 186.76 211.347 186.693 211.894 186.56C212.454 186.413 213.027 186.207 213.614 185.94V187.96C213.081 188.213 212.527 188.4 211.954 188.52C211.381 188.64 210.694 188.7 209.894 188.7C208.841 188.7 207.901 188.5 207.074 188.1C206.261 187.687 205.621 187.067 205.154 186.24C204.701 185.413 204.474 184.387 204.474 183.16C204.474 181.92 204.681 180.88 205.094 180.04C205.521 179.187 206.107 178.547 206.854 178.12C207.601 177.68 208.474 177.46 209.474 177.46ZM209.474 179.32C208.807 179.32 208.261 179.54 207.834 179.98C207.421 180.407 207.174 181.047 207.094 181.9H211.754C211.754 181.393 211.667 180.947 211.494 180.56C211.334 180.173 211.087 179.873 210.754 179.66C210.421 179.433 209.994 179.32 209.474 179.32Z" fill="#6F6F6F"/>
<path d="M116.841 214.5C111.09 214.5 108.812 222.645 113.579 226.166L119.719 230.7L121.913 232.5L124.106 230.7L130.287 226.353C135.227 222.878 132.978 214.5 127.105 214.5C124.88 214.5 122.958 215.846 121.957 217.817C120.97 215.849 119.059 214.5 116.841 214.5Z" fill="#EB7F5C"/>
<path d="M146.841 214.5C141.09 214.5 138.812 222.645 143.579 226.166L149.719 230.7L151.913 232.5L154.106 230.7L160.287 226.353C165.227 222.878 162.978 214.5 157.105 214.5C154.88 214.5 152.958 215.846 151.957 217.817C150.97 215.849 149.059 214.5 146.841 214.5Z" fill="#EB7F5C"/>
<path d="M176.841 214.5C171.09 214.5 168.812 222.645 173.579 226.166L179.719 230.7L181.913 232.5L184.106 230.7L190.287 226.353C195.227 222.878 192.978 214.5 187.105 214.5C184.88 214.5 182.958 215.846 181.957 217.817C180.97 215.849 179.059 214.5 176.841 214.5Z" fill="#EB7F5C"/>
<path d="M206.841 214.5C201.09 214.5 198.812 222.645 203.579 226.166L209.719 230.7L211.913 232.5L214.106 230.7L220.287 226.353C225.227 222.878 222.978 214.5 217.105 214.5C214.88 214.5 212.958 215.846 211.957 217.817C210.97 215.849 209.059 214.5 206.841 214.5Z" fill="#EB7F5C"/>
<path d="M236.841 214.5C231.09 214.5 228.812 222.645 233.579 226.166L239.719 230.7L241.913 232.5L244.106 230.7L250.287 226.353C255.227 222.878 252.978 214.5 247.105 214.5C244.88 214.5 242.958 215.846 241.957 217.817C240.97 215.849 239.059 214.5 236.841 214.5Z" fill="#EB7F5C"/>
<path d="M71.1205 261.8H88.6405V263.26H71.1205V261.8ZM77.3205 268.14H87.8605V269.54H77.3205V268.14ZM76.5405 275.22H88.6405V276.64H76.5405V275.22ZM81.8405 264.28H83.3405V275.98H81.8405V264.28ZM77.7005 258.7L79.2405 259.08C77.8405 263.66 75.4005 268.32 71.4205 271.18C71.2605 270.78 70.8805 270.14 70.6405 269.8C74.2405 267.26 76.5805 262.82 77.7005 258.7ZM73.7405 266.94H75.2405V277.04H73.7405V266.94ZM99.7205 275.5L95.0205 262.98H94.9405C94.9671 263.247 94.9871 263.587 95.0005 264C95.0271 264.413 95.0471 264.867 95.0605 265.36C95.0738 265.84 95.0805 266.333 95.0805 266.84V275.5H93.4205V261.22H96.0805L100.48 272.92H100.56L105.04 261.22H107.68V275.5H105.9V266.72C105.9 266.253 105.907 265.793 105.92 265.34C105.934 264.873 105.954 264.44 105.98 264.04C106.007 263.627 106.027 263.28 106.04 263H105.96L101.2 275.5H99.7205ZM122.245 270.12C122.245 271.013 122.125 271.807 121.885 272.5C121.658 273.18 121.325 273.76 120.885 274.24C120.458 274.72 119.932 275.087 119.305 275.34C118.692 275.58 118.005 275.7 117.245 275.7C116.538 275.7 115.885 275.58 115.285 275.34C114.685 275.087 114.165 274.72 113.725 274.24C113.285 273.76 112.938 273.18 112.685 272.5C112.445 271.807 112.325 271.013 112.325 270.12C112.325 268.933 112.525 267.933 112.925 267.12C113.325 266.293 113.898 265.667 114.645 265.24C115.392 264.8 116.278 264.58 117.305 264.58C118.278 264.58 119.132 264.8 119.865 265.24C120.612 265.667 121.192 266.293 121.605 267.12C122.032 267.933 122.245 268.933 122.245 270.12ZM114.145 270.12C114.145 270.96 114.252 271.693 114.465 272.32C114.692 272.933 115.038 273.407 115.505 273.74C115.972 274.073 116.565 274.24 117.285 274.24C118.005 274.24 118.598 274.073 119.065 273.74C119.532 273.407 119.872 272.933 120.085 272.32C120.312 271.693 120.425 270.96 120.425 270.12C120.425 269.267 120.312 268.54 120.085 267.94C119.858 267.34 119.512 266.88 119.045 266.56C118.592 266.227 117.998 266.06 117.265 266.06C116.172 266.06 115.378 266.42 114.885 267.14C114.392 267.86 114.145 268.853 114.145 270.12ZM135.954 270.12C135.954 271.013 135.834 271.807 135.594 272.5C135.368 273.18 135.034 273.76 134.594 274.24C134.168 274.72 133.641 275.087 133.014 275.34C132.401 275.58 131.714 275.7 130.954 275.7C130.248 275.7 129.594 275.58 128.994 275.34C128.394 275.087 127.874 274.72 127.434 274.24C126.994 273.76 126.648 273.18 126.394 272.5C126.154 271.807 126.034 271.013 126.034 270.12C126.034 268.933 126.234 267.933 126.634 267.12C127.034 266.293 127.608 265.667 128.354 265.24C129.101 264.8 129.988 264.58 131.014 264.58C131.988 264.58 132.841 264.8 133.574 265.24C134.321 265.667 134.901 266.293 135.314 267.12C135.741 267.933 135.954 268.933 135.954 270.12ZM127.854 270.12C127.854 270.96 127.961 271.693 128.174 272.32C128.401 272.933 128.748 273.407 129.214 273.74C129.681 274.073 130.274 274.24 130.994 274.24C131.714 274.24 132.308 274.073 132.774 273.74C133.241 273.407 133.581 272.933 133.794 272.32C134.021 271.693 134.134 270.96 134.134 270.12C134.134 269.267 134.021 268.54 133.794 267.94C133.568 267.34 133.221 266.88 132.754 266.56C132.301 266.227 131.708 266.06 130.974 266.06C129.881 266.06 129.088 266.42 128.594 267.14C128.101 267.86 127.854 268.853 127.854 270.12ZM145.504 264.58C146.784 264.58 147.75 264.893 148.404 265.52C149.057 266.133 149.384 267.133 149.384 268.52V275.5H147.644V268.64C147.644 267.773 147.45 267.127 147.064 266.7C146.677 266.273 146.07 266.06 145.244 266.06C144.057 266.06 143.237 266.393 142.784 267.06C142.33 267.727 142.104 268.687 142.104 269.94V275.5H140.344V264.78H141.764L142.024 266.24H142.124C142.364 265.867 142.657 265.56 143.004 265.32C143.364 265.067 143.757 264.88 144.184 264.76C144.61 264.64 145.05 264.58 145.504 264.58ZM156.067 275.5H154.307V260.3H156.067V275.5ZM162.823 264.78V275.5H161.063V264.78H162.823ZM161.963 260.76C162.23 260.76 162.463 260.853 162.663 261.04C162.877 261.213 162.983 261.493 162.983 261.88C162.983 262.253 162.877 262.533 162.663 262.72C162.463 262.907 162.23 263 161.963 263C161.67 263 161.423 262.907 161.223 262.72C161.023 262.533 160.923 262.253 160.923 261.88C160.923 261.493 161.023 261.213 161.223 261.04C161.423 260.853 161.67 260.76 161.963 260.76ZM168.74 261.92H174.82V275H168.74V273.64H173.42V263.26H168.74V261.92ZM167.84 261.92H169.24V276.6H167.84V261.92ZM168.64 267.48H174.16V268.82H168.64V267.48ZM170.9 258.66L172.52 258.96C172.12 260.2 171.62 261.58 171.22 262.48L170.02 262.18C170.36 261.22 170.74 259.7 170.9 258.66ZM177.66 261.86H183.8V263.26H177.66V261.86ZM183.28 261.86H184.68C184.68 261.86 184.68 262.42 184.68 262.64C184.36 271.82 184.08 274.92 183.28 275.9C182.84 276.48 182.38 276.66 181.68 276.72C181 276.8 179.82 276.76 178.7 276.7C178.66 276.26 178.48 275.64 178.2 275.24C179.5 275.34 180.7 275.36 181.16 275.36C181.56 275.36 181.8 275.3 182.02 275.04C182.68 274.32 183 271 183.28 262.18V261.86ZM178.08 258.62L179.52 258.96C178.78 261.94 177.6 264.88 176.22 266.78C175.96 266.54 175.34 266.12 174.98 265.92C176.34 264.16 177.44 261.4 178.08 258.62ZM177.16 267.06L178.32 266.38C179.46 267.8 180.84 269.74 181.48 270.92L180.2 271.72C179.6 270.5 178.26 268.52 177.16 267.06ZM196.96 271.38H198.44V277.1H196.96V271.38ZM190.24 272.72H204.66V273.82H191.7V276.78H190.24V272.72ZM204.1 272.72H205.56V275.34C205.56 276.04 205.4 276.38 204.82 276.58C204.22 276.76 203.26 276.76 201.8 276.76C201.72 276.38 201.5 275.96 201.3 275.62C202.46 275.66 203.42 275.66 203.72 275.64C204.02 275.62 204.1 275.56 204.1 275.34V272.72ZM197.88 260.5H206.68V261.66H197.88V260.5ZM189.7 259.8H197.14V260.66H189.7V259.8ZM189.4 263.44H197.38V264.32H189.4V263.44ZM188.98 261.6H197.74V262.5H188.98V261.6ZM198.82 262.56L199.82 262C200.56 262.68 201.38 263.66 201.74 264.34L200.68 264.98C200.34 264.28 199.56 263.26 198.82 262.56ZM188.86 265.68C191.1 265.54 194.48 265.28 197.82 265L197.8 265.92C194.6 266.22 191.3 266.52 188.98 266.72L188.86 265.68ZM203.1 258.74H204.52V265.2C204.52 265.88 204.36 266.18 203.84 266.38C203.3 266.58 202.52 266.58 201.28 266.58C201.2 266.24 200.96 265.78 200.76 265.48C201.72 265.48 202.54 265.48 202.76 265.48C203.04 265.48 203.1 265.4 203.1 265.18V258.74ZM192.66 258.72H194.06V262.2H192.66V258.72ZM192.66 262.2H194.06V265.96H192.66V262.2ZM192.54 269.9V270.82H203.06V269.9H192.54ZM192.54 268.12V269H203.06V268.12H192.54ZM191.18 267.18H204.46V271.74H191.18V267.18ZM197.44 265.78L198.84 266.1C198.5 266.72 198.16 267.3 197.9 267.72L196.76 267.42C196.98 266.92 197.3 266.22 197.44 265.78ZM218.64 263.24H227.1V264.66H218.64V263.24ZM226.46 263.24H227.9C227.9 263.24 227.88 263.8 227.88 264C227.68 272.46 227.5 275.32 226.84 276.18C226.44 276.72 226.02 276.88 225.38 276.94C224.76 277 223.68 276.98 222.62 276.94C222.58 276.5 222.42 275.88 222.16 275.5C223.32 275.58 224.36 275.58 224.78 275.58C225.12 275.6 225.34 275.54 225.52 275.28C226.06 274.66 226.28 271.74 226.46 263.56V263.24ZM221.96 258.72H223.42C223.4 266.38 223.38 273.5 217.82 277.14C217.6 276.78 217.1 276.28 216.72 276.04C222.06 272.72 221.94 266 221.96 258.72ZM211.44 259.68H217.96V272.7H216.56V261.06H212.78V273.98H211.44V259.68ZM210 273.62C212.22 273.18 215.74 272.44 219.06 271.7L219.2 273.06C216.02 273.82 212.66 274.6 210.26 275.14L210 273.62ZM212.14 263.98H217.22V265.34H212.14V263.98ZM212.14 268.26H217.22V269.6H212.14V268.26ZM232.02 260.18H249.82V261.7H232.02V260.18ZM239.72 261.38H241.3V277.08H239.72V261.38ZM240.6 266.12L241.58 264.96C243.98 266.12 247.14 267.94 248.74 269.14L247.68 270.5C246.14 269.26 243.02 267.36 240.6 266.12ZM255.66 277.64L255.2 276.6C256.84 275.92 257.74 274.9 257.74 273.4L257.36 271.7L258.44 273.22C258.16 273.58 257.76 273.68 257.38 273.68C256.56 273.68 255.88 273.2 255.88 272.24C255.88 271.3 256.6 270.8 257.4 270.8C258.52 270.8 259.12 271.72 259.12 273.12C259.12 275.28 257.76 276.92 255.66 277.64ZM288.18 260.02L289.32 259.24C290.5 260.24 291.9 261.66 292.56 262.58L291.32 263.46C290.72 262.5 289.36 261.06 288.18 260.02ZM275.22 264.62H293.04V266.06H275.22V264.62ZM274.92 270.5C277.3 270.06 281.06 269.26 284.58 268.5L284.7 269.86C281.42 270.62 277.88 271.44 275.36 272L274.92 270.5ZM279.52 260.74H281.02V275.18C281.02 276.16 280.78 276.6 280.14 276.84C279.5 277.08 278.44 277.14 276.78 277.12C276.7 276.72 276.44 276.04 276.22 275.6C277.5 275.66 278.68 275.64 279.04 275.62C279.4 275.62 279.52 275.52 279.52 275.16V260.74ZM283.32 258.94L284.38 260.2C282.06 261 278.66 261.62 275.8 262.02C275.72 261.68 275.54 261.12 275.34 260.78C278.16 260.34 281.4 259.66 283.32 258.94ZM285.32 258.88H286.88C286.84 268.06 288.8 275.66 291.24 275.66C291.78 275.66 292.02 274.62 292.14 272.04C292.46 272.38 293 272.72 293.42 272.88C293.14 276.2 292.6 277.18 291.1 277.18C287.18 277.18 285.4 268.4 285.32 258.88ZM290.74 266.98L292.08 267.54C290.12 271.2 286.82 274.42 283.14 276.36C282.9 275.98 282.48 275.5 282.1 275.16C285.66 273.44 288.96 270.36 290.74 266.98ZM64.66 299.3C66.46 298.86 69.16 298.1 71.7 297.36L71.88 298.74C69.54 299.44 67.02 300.2 65.1 300.74L64.66 299.3ZM64.9 292.74H71.68V294.16H64.9V292.74ZM67.78 288.72H69.24V305.2C69.24 306.04 69.02 306.46 68.52 306.68C67.98 306.92 67.16 306.96 65.78 306.96C65.72 306.58 65.5 305.96 65.32 305.56C66.26 305.6 67.12 305.58 67.38 305.58C67.66 305.58 67.78 305.48 67.78 305.2V288.72ZM71.92 294.36L82.66 293.24L82.82 294.64L72.08 295.8L71.92 294.36ZM77.5 289.94L78.64 289.18C79.64 290.02 80.84 291.24 81.4 292.06L80.2 292.92C79.68 292.08 78.48 290.82 77.5 289.94ZM74.62 288.78H76.14C76.48 297.76 78.1 304.96 81.08 305.26C81.62 305.3 81.94 304.2 82.14 302C82.44 302.3 83.1 302.68 83.42 302.82C82.96 306.08 82.16 307.08 81.14 307.02C76.68 306.68 75.1 298.98 74.62 288.78ZM80.56 296.2L81.8 296.96C80 300.88 76.4 304.66 72.5 306.42C72.22 306.02 71.74 305.54 71.32 305.24C75.3 303.66 78.9 299.98 80.56 296.2ZM93.08 295.5V300.1H97.94V295.5H93.08ZM91.66 294.16H99.44V301.42H91.66V294.16ZM87.24 289.52H103.96V307.08H102.36V291.04H88.78V307.08H87.24V289.52ZM88.1 304.6H103.28V306.02H88.1V304.6ZM116.44 295.52H118V305.18C118 306.18 117.74 306.64 116.96 306.86C116.18 307.1 114.84 307.12 112.82 307.12C112.72 306.68 112.44 306.04 112.2 305.6C113.86 305.66 115.4 305.66 115.86 305.64C116.3 305.62 116.44 305.5 116.44 305.14V295.52ZM109.16 290.28H123.6V291.74H109.16V290.28ZM123.06 290.28H123.46L123.82 290.18L124.98 291.02C123.2 293.14 120.38 295.5 117.9 296.9C117.68 296.58 117.2 296.08 116.88 295.86C119.16 294.6 121.8 292.3 123.06 290.64V290.28ZM130.98 293.18H145.94V294.66H132.5V307.12H130.98V293.18ZM145.2 293.18H146.72V305.16C146.72 306.1 146.52 306.58 145.84 306.84C145.16 307.08 143.98 307.1 142.3 307.1C142.24 306.66 142 305.98 141.78 305.56C143.08 305.6 144.36 305.6 144.74 305.58C145.1 305.56 145.2 305.46 145.2 305.14V293.18ZM134.48 289.6H138.76V290.94H134.48V289.6ZM137.74 289.6H139.4C139.64 295.36 141.06 299.4 144.98 301.08C144.66 301.4 144.16 301.98 143.92 302.38C139.9 300.38 138.36 296.16 138.06 290.34H137.74V289.6ZM137.9 293.58L139.32 293.82C138.64 297.94 136.92 300.82 133.7 302.48C133.48 302.14 133 301.56 132.68 301.32C135.7 299.84 137.38 297.34 137.9 293.58ZM156.48 294.3H158.02V304.34C158.02 305.28 158.26 305.46 159.36 305.46C159.86 305.46 162.38 305.46 163.06 305.46C164.24 305.46 164.42 304.72 164.58 301.26C164.94 301.56 165.56 301.84 166 301.94C165.78 305.72 165.32 306.84 163.14 306.84C162.66 306.84 159.68 306.84 159.22 306.84C157.1 306.84 156.48 306.3 156.48 304.34V294.3ZM156.64 289.94L157.58 288.8C160 289.62 162.9 291.06 164.48 292.14L163.52 293.46C161.98 292.3 159.06 290.8 156.64 289.94ZM153.14 295.9L154.58 296.2C154.28 298.88 153.66 302.08 152.22 304L150.86 303.18C152.2 301.42 152.86 298.5 153.14 295.9ZM164.8 295.92L166.14 295.26C167.94 297.54 169.44 300.56 169.94 302.68L168.44 303.4C168 301.3 166.5 298.18 164.8 295.92ZM174.62 291.92H180.7V305H174.62V303.64H179.3V293.26H174.62V291.92ZM173.72 291.92H175.12V306.6H173.72V291.92ZM174.52 297.48H180.04V298.82H174.52V297.48ZM176.78 288.66L178.4 288.96C178 290.2 177.5 291.58 177.1 292.48L175.9 292.18C176.24 291.22 176.62 289.7 176.78 288.66ZM183.54 291.86H189.68V293.26H183.54V291.86ZM189.16 291.86H190.56C190.56 291.86 190.56 292.42 190.56 292.64C190.24 301.82 189.96 304.92 189.16 305.9C188.72 306.48 188.26 306.66 187.56 306.72C186.88 306.8 185.7 306.76 184.58 306.7C184.54 306.26 184.36 305.64 184.08 305.24C185.38 305.34 186.58 305.36 187.04 305.36C187.44 305.36 187.68 305.3 187.9 305.04C188.56 304.32 188.88 301 189.16 292.18V291.86ZM183.96 288.62L185.4 288.96C184.66 291.94 183.48 294.88 182.1 296.78C181.84 296.54 181.22 296.12 180.86 295.92C182.22 294.16 183.32 291.4 183.96 288.62ZM183.04 297.06L184.2 296.38C185.34 297.8 186.72 299.74 187.36 300.92L186.08 301.72C185.48 300.5 184.14 298.52 183.04 297.06ZM195.68 290.06H211.44V291.54H195.68V290.06ZM194.64 298.56H212.58V300.06H194.64V298.56ZM197.08 292.92L198.42 292.5C199.24 293.96 200.06 295.86 200.34 297.04L198.9 297.52C198.62 296.34 197.84 294.4 197.08 292.92ZM208.68 292.42L210.28 292.86C209.52 294.48 208.58 296.4 207.8 297.6L206.52 297.18C207.26 295.92 208.2 293.86 208.68 292.42ZM202.78 290.64H204.32V307.1H202.78V290.64ZM216.4 290.34H224.34V291.46H216.4V290.34ZM216.78 292.66H224.06V293.76H216.78V292.66ZM215.98 295.04H224.64V296.18H215.98V295.04ZM217.82 301.34H223.16V302.5H217.82V301.34ZM219.64 288.7H221.04V295.82H219.64V288.7ZM219.82 297.76H220.9V301.94H219.82V297.76ZM216.86 297.28H223.06V298.44H218.14V307.1H216.86V297.28ZM222.68 297.28H223.98V305.64C223.98 306.28 223.88 306.64 223.44 306.86C222.98 307.06 222.36 307.08 221.34 307.08C221.28 306.74 221.08 306.22 220.9 305.9C221.6 305.92 222.22 305.92 222.42 305.9C222.62 305.88 222.68 305.82 222.68 305.62V297.28ZM225.42 301.4H232.44V302.64H225.42V301.4ZM224.42 298.18H234.5V299.46H224.42V298.18ZM225.5 295.04H233.28V303.48H231.92V296.3H225.5V295.04ZM228.14 295.64H229.54V305.44C229.54 306.24 229.4 306.64 228.84 306.86C228.3 307.1 227.46 307.12 226.18 307.12C226.12 306.74 225.88 306.16 225.68 305.76C226.68 305.78 227.52 305.78 227.82 305.76C228.06 305.76 228.14 305.68 228.14 305.44V295.64ZM232.14 288.9L233.16 290.04C231.36 290.64 228.66 291.08 226.44 291.3C226.38 290.98 226.18 290.48 226.02 290.16C228.14 289.9 230.68 289.42 232.14 288.9ZM225.86 289.86L227.26 290.18C226.8 291.78 226.04 293.74 225.12 295.02C224.84 294.8 224.34 294.48 224.02 294.32C224.88 293.12 225.54 291.28 225.86 289.86ZM228.08 291.7L229.32 291.44C229.74 292.34 230.12 293.54 230.22 294.28L228.92 294.6C228.82 293.84 228.48 292.64 228.08 291.7ZM231.2 291.18L232.36 290.7C233.18 291.82 234.12 293.34 234.5 294.32L233.28 294.84C232.92 293.86 232.04 292.32 231.2 291.18ZM240.68 300.64C242.36 300.64 243.72 302 243.72 303.68C243.72 305.36 242.36 306.72 240.68 306.72C239 306.72 237.62 305.36 237.62 303.68C237.62 302 239 300.64 240.68 300.64ZM240.68 305.7C241.8 305.7 242.7 304.8 242.7 303.68C242.7 302.56 241.8 301.66 240.68 301.66C239.56 301.66 238.64 302.56 238.64 303.68C238.64 304.8 239.56 305.7 240.68 305.7ZM265.82 296.24C266.8 295.82 268.18 295.12 269.62 294.4L269.94 295.5C268.78 296.16 267.52 296.84 266.46 297.38L265.82 296.24ZM266.3 290.08L267.24 289.34C268.14 289.98 269.16 290.96 269.62 291.66L268.62 292.5C268.18 291.78 267.18 290.78 266.3 290.08ZM270.88 290.82H276.72V292.06H270.88V290.82ZM268.32 304.78H275.42V306.14H268.32V304.78ZM267.64 299.62H276.24V307.08H274.76V300.96H269.06V307.14H267.64V299.62ZM271.26 288.7L272.6 288.98C272.02 291.08 271.06 293.1 269.94 294.42C269.7 294.2 269.12 293.82 268.78 293.64C269.92 292.44 270.76 290.58 271.26 288.7ZM276.34 290.82H276.54L276.78 290.78L277.68 290.98C277.34 292.16 276.92 293.52 276.54 294.36L275.42 294.08C275.74 293.3 276.12 292.06 276.34 291.02V290.82ZM273.28 291.3H274V293.32C274 294.18 274.4 296.68 277.84 297.9C277.58 298.22 277.22 298.72 277.02 299.06C274.56 298.16 273.52 296.16 273.28 295.2C273.04 296.16 271.9 298.06 269.12 299.04C268.96 298.74 268.6 298.26 268.34 297.98C272.16 296.62 272.54 294.18 272.54 293.34V291.3H273.28ZM260.02 294.76H265.42V295.96H260.02V294.76ZM260.12 289.42H265.34V290.62H260.12V289.42ZM260.02 297.44H265.42V298.64H260.02V297.44ZM259.16 292.04H266V293.28H259.16V292.04ZM260.72 300.14H265.42V305.96H260.72V304.72H264.16V301.38H260.72V300.14ZM259.98 300.14H261.26V306.9H259.98V300.14ZM281.36 290.6H298.66V291.98H281.36V290.6ZM289.16 288.72H290.7V291.4H289.16V288.72ZM282.22 294.1H297.32V295.44H283.64V307.08H282.22V294.1ZM296.52 294.1H297.96V305.26C297.96 306.14 297.76 306.62 297.12 306.86C296.46 307.08 295.36 307.12 293.7 307.12C293.64 306.72 293.4 306.04 293.2 305.64C294.5 305.7 295.7 305.68 296.06 305.66C296.42 305.66 296.52 305.56 296.52 305.26V294.1ZM287.26 295.08H288.62C288.42 297.7 287.58 299.06 284.5 299.8C284.36 299.48 284.02 298.96 283.76 298.72C286.46 298.18 287.1 297.18 287.26 295.08ZM290.98 295.08H292.3V297.42C292.3 297.8 292.38 297.84 292.88 297.84C293.14 297.84 294.32 297.84 294.64 297.84C295.06 297.84 295.14 297.72 295.2 296.52C295.46 296.72 296 296.9 296.36 296.98C296.24 298.6 295.88 299 294.82 299C294.52 299 293.02 299 292.74 299C291.3 299 290.98 298.68 290.98 297.44V295.08ZM286.28 300.04H287.62V306.18H286.28V300.04ZM287.08 300.04H293.88V304.96H287.08V303.78H292.52V301.22H287.08V300.04ZM285.2 291.98L286.66 291.68C287.12 292.44 287.58 293.46 287.78 294.12L286.26 294.48C286.08 293.8 285.64 292.76 285.2 291.98ZM293.26 291.62L294.9 291.92C294.42 292.88 293.92 293.82 293.5 294.48L292.04 294.18C292.46 293.48 292.98 292.36 293.26 291.62ZM66.2 321.72H71.62V327.28H66.2V325.96H70.26V323.02H66.2V321.72ZM66.22 329.12H71.8V335.14H66.22V333.86H70.46V330.42H66.22V329.12ZM65.6 321.72H66.96V336.5H65.6V321.72ZM72.4 319.76H83.1V321.14H72.4V319.76ZM68.14 318.7L69.78 318.94C69.34 320.12 68.8 321.5 68.32 322.38L67.14 322.12C67.5 321.16 67.94 319.7 68.14 318.7ZM77.02 320.34H78.44V337.08H77.02V320.34ZM73.16 323.6H81.82V324.96H74.54V334.1H73.16V323.6ZM81.1 323.6H82.52V332.52C82.52 333.2 82.4 333.6 81.92 333.84C81.46 334.08 80.76 334.08 79.68 334.08C79.64 333.7 79.44 333.14 79.24 332.76C80 332.78 80.64 332.78 80.82 332.78C81.04 332.78 81.1 332.7 81.1 332.5V323.6ZM97.92 321.74H104.4V323.16H97.92V321.74ZM97.9 330.82H104.74V332.24H97.9V330.82ZM97.82 326.26H104V327.62H97.82V326.26ZM87.12 321.74H93.02V323.16H87.12V321.74ZM87.36 326.26H92.96V327.62H87.36V326.26ZM97.14 318.82H98.62V337.1H97.14V318.82ZM86.38 331.26C88.6 330.92 92.08 330.36 95.38 329.78L95.46 331.12C92.34 331.7 89.06 332.3 86.7 332.72L86.38 331.26ZM92.34 318.82H93.82V328.16C93.82 330.74 93.02 335.06 88.2 337.32C87.96 336.98 87.48 336.5 87.12 336.2C91.7 334.26 92.34 330.24 92.34 328.16V318.82ZM116.68 328.44H118.2V337.12H116.68V328.44ZM113.46 325.7V327.64H121.02V325.7H113.46ZM112 324.56H122.56V328.8H112V324.56ZM110.22 330.46H123.62V331.82H111.72V336.2H110.22V330.46ZM122.88 330.46H124.4V334.64C124.4 335.42 124.24 335.84 123.62 336.06C122.98 336.3 121.96 336.3 120.4 336.3C120.32 335.9 120.1 335.34 119.88 334.94C121.08 334.98 122.16 334.98 122.48 334.96C122.78 334.94 122.88 334.86 122.88 334.64V330.46ZM116.54 318.7H118.08V322.34H116.54V318.7ZM108.9 321.8H125.62V326.12H124.12V323.14H110.36V326.12H108.9V321.8ZM110.56 319.44L111.9 318.9C112.56 319.62 113.26 320.58 113.6 321.24L112.16 321.9C111.86 321.22 111.18 320.18 110.56 319.44ZM122.44 318.86L124 319.4C123.34 320.28 122.58 321.2 121.98 321.82L120.76 321.32C121.32 320.66 122.06 319.58 122.44 318.86ZM129.72 331.4H147.88V332.64H129.72V331.4ZM130.3 320.26H147.06V321.46H130.3V320.26ZM141.64 330.1H143.08V335.5C143.08 336.28 142.92 336.68 142.3 336.9C141.66 337.1 140.64 337.1 139.02 337.1C138.96 336.72 138.76 336.18 138.56 335.8C139.76 335.84 140.88 335.84 141.22 335.82C141.54 335.8 141.64 335.72 141.64 335.46V330.1ZM138.02 318.74H139.5V329.46H138.02V318.74ZM132.92 333.48L133.94 332.6C135.12 333.28 136.6 334.34 137.3 335.12L136.2 336.12C135.52 335.32 134.12 334.22 132.92 333.48ZM133.26 325.8V327.04H144.38V325.8H133.26ZM133.26 323.6V324.82H144.38V323.6H133.26ZM131.84 322.6H145.84V328.06H131.84V322.6ZM141.76 328.48L142.62 327.72C144.22 328.26 146.12 329.26 147.12 330L146.22 330.86C145.24 330.06 143.34 329.02 141.76 328.48ZM130.52 329.22C134.16 329.22 139.98 329.16 145.46 329.06L145.38 330.08C140.04 330.22 134.36 330.34 130.58 330.4L130.52 329.22ZM151.66 331.06H169.18V332.32H151.66V331.06ZM151.74 322.28H169.1V323.56H151.74V322.28ZM152.54 325.7H168.38V326.94H152.54V325.7ZM153.56 328.4H167.4V329.56H153.56V328.4ZM159.62 326.28H161.1V337.12H159.62V326.28ZM157.78 318.7H159.2V322.88H157.78V318.7ZM161.56 318.7H163V322.82H161.56V318.7ZM159.14 331.56L160.34 332.12C158.48 334.2 155.1 335.94 152.12 336.78C151.9 336.4 151.46 335.82 151.14 335.5C154.1 334.84 157.44 333.3 159.14 331.56ZM161.58 331.52C163.28 333.32 166.64 334.86 169.68 335.5C169.34 335.82 168.88 336.42 168.66 336.84C165.62 336 162.28 334.18 160.4 332.02L161.58 331.52ZM166.2 318.94L167.74 319.36C167.16 320.46 166.44 321.64 165.88 322.42L164.66 322.02C165.2 321.18 165.86 319.86 166.2 318.94ZM163.52 323.18L165.08 323.56C164.58 324.46 164.06 325.38 163.62 326.02L162.36 325.64C162.76 324.94 163.28 323.9 163.52 323.18ZM153.36 319.36L154.64 318.9C155.32 319.8 156.06 321.06 156.34 321.88L155 322.38C154.72 321.58 154 320.3 153.36 319.36ZM155.96 323.7L157.38 323.42C157.84 324.08 158.3 324.98 158.48 325.58L157 325.9C156.84 325.3 156.4 324.36 155.96 323.7ZM175.14 337.64L174.68 336.6C176.32 335.92 177.22 334.9 177.22 333.4L176.84 331.7L177.92 333.22C177.64 333.58 177.24 333.68 176.86 333.68C176.04 333.68 175.36 333.2 175.36 332.24C175.36 331.3 176.08 330.8 176.88 330.8C178 330.8 178.6 331.72 178.6 333.12C178.6 335.28 177.24 336.92 175.14 337.64ZM203.72 325.3H210.38V326.68H203.72V325.3ZM203.62 334.6H210.82V335.96H203.62V334.6ZM206.9 320.44C205.8 322.42 203.76 324.98 201.6 326.7C201.42 326.3 201.02 325.74 200.72 325.42C202.88 323.76 205.06 321.02 206.1 318.9H207.56C208.98 321.16 211.22 323.74 213.24 325.22C212.9 325.58 212.54 326.14 212.3 326.58C210.34 324.96 208.1 322.4 206.9 320.44ZM202.86 329.08H211.46V337.02H210.02V330.44H204.24V337.1H202.86V329.08ZM197.5 318.72L198.82 319.24C198.06 320.7 197.12 322.48 196.34 323.58L195.3 323.1C196.06 321.96 196.98 320.04 197.5 318.72ZM199.74 321L201 321.56C199.64 323.86 197.72 326.76 196.24 328.52L195.32 328C196.8 326.2 198.68 323.16 199.74 321ZM194.34 322.92L195.1 321.94C196.22 322.88 197.48 324.18 198.02 325.08L197.22 326.22C196.68 325.28 195.42 323.88 194.34 322.92ZM199.04 325.64L200.08 325.22C200.9 326.5 201.7 328.22 201.98 329.32L200.86 329.84C200.58 328.72 199.84 326.96 199.04 325.64ZM194.28 327.68C196.02 327.62 198.52 327.52 201.06 327.38L201.04 328.62C198.64 328.78 196.22 328.92 194.4 329.04L194.28 327.68ZM199.56 330.36L200.64 330.02C201.2 331.14 201.74 332.66 201.94 333.66L200.78 334.06C200.6 333.06 200.06 331.52 199.56 330.36ZM195.4 330.14L196.7 330.38C196.42 332.26 195.92 334.2 195.28 335.48C195.02 335.32 194.42 335.04 194.1 334.9C194.76 333.68 195.16 331.9 195.4 330.14ZM197.56 328.24H198.9V337.16H197.56V328.24ZM224.44 325.52H226V335.18C226 336.18 225.74 336.64 224.96 336.86C224.18 337.1 222.84 337.12 220.82 337.12C220.72 336.68 220.44 336.04 220.2 335.6C221.86 335.66 223.4 335.66 223.86 335.64C224.3 335.62 224.44 335.5 224.44 335.14V325.52ZM217.16 320.28H231.6V321.74H217.16V320.28ZM231.06 320.28H231.46L231.82 320.18L232.98 321.02C231.2 323.14 228.38 325.5 225.9 326.9C225.68 326.58 225.2 326.08 224.88 325.86C227.16 324.6 229.8 322.3 231.06 320.64V320.28ZM250.86 320.02L252 319.24C253.18 320.24 254.58 321.66 255.24 322.58L254 323.46C253.4 322.5 252.04 321.06 250.86 320.02ZM237.9 324.62H255.72V326.06H237.9V324.62ZM237.6 330.5C239.98 330.06 243.74 329.26 247.26 328.5L247.38 329.86C244.1 330.62 240.56 331.44 238.04 332L237.6 330.5ZM242.2 320.74H243.7V335.18C243.7 336.16 243.46 336.6 242.82 336.84C242.18 337.08 241.12 337.14 239.46 337.12C239.38 336.72 239.12 336.04 238.9 335.6C240.18 335.66 241.36 335.64 241.72 335.62C242.08 335.62 242.2 335.52 242.2 335.16V320.74ZM246 318.94L247.06 320.2C244.74 321 241.34 321.62 238.48 322.02C238.4 321.68 238.22 321.12 238.02 320.78C240.84 320.34 244.08 319.66 246 318.94ZM248 318.88H249.56C249.52 328.06 251.48 335.66 253.92 335.66C254.46 335.66 254.7 334.62 254.82 332.04C255.14 332.38 255.68 332.72 256.1 332.88C255.82 336.2 255.28 337.18 253.78 337.18C249.86 337.18 248.08 328.4 248 318.88ZM253.42 326.98L254.76 327.54C252.8 331.2 249.5 334.42 245.82 336.36C245.58 335.98 245.16 335.5 244.78 335.16C248.34 333.44 251.64 330.36 253.42 326.98ZM266.7 319.66H268.2V335.46L266.7 335.82V319.66ZM267.38 319.66H276.38V328.56H267.38V327.24H274.86V321H267.38V319.66ZM267.4 323.48H275.5V324.76H267.4V323.48ZM264.76 335.34C266.68 335.06 269.7 334.56 272.6 334.06L272.7 335.4C270.06 335.9 267.22 336.4 265.18 336.76L264.76 335.34ZM271.72 327.98C272.64 331.64 274.68 334.6 277.82 335.84C277.48 336.14 277.04 336.72 276.82 337.12C273.48 335.62 271.48 332.4 270.42 328.24L271.72 327.98ZM276.26 329.26L277.32 330.12C276.18 331.16 274.6 332.26 273.4 332.98L272.44 332.14C273.62 331.42 275.28 330.18 276.26 329.26ZM264.22 322.66L265.56 323.2C264.1 325.66 261.82 328.14 259.72 329.74C259.56 329.42 259.1 328.68 258.84 328.38C260.84 326.98 262.94 324.84 264.22 322.66ZM263.54 318.72L264.98 319.3C263.74 321.06 261.76 323 259.9 324.22C259.74 323.88 259.36 323.28 259.12 322.98C260.78 321.92 262.64 320.18 263.54 318.72ZM262.12 326.7L263.52 325.28L263.58 325.32V337.1H262.12V326.7ZM285.02 323.12L286.02 322.24C287.52 322.94 289.36 324.06 290.26 324.9L289.2 325.88C288.34 325.04 286.52 323.86 285.02 323.12ZM294.26 320.4H294.56L294.82 320.32L295.8 320.92C293.2 325.58 287.28 328.38 282 329.54C281.86 329.16 281.56 328.54 281.28 328.22C286.32 327.28 292.08 324.58 294.26 320.64V320.4ZM287.58 320.4H294.64V321.66H287.58V320.4ZM289.06 318.68L290.74 319.04C288.9 321.16 286.18 323.14 282.46 324.62C282.24 324.26 281.78 323.76 281.44 323.5C285.04 322.24 287.68 320.36 289.06 318.68ZM287.58 330.46L288.68 329.6C290.26 330.42 292.18 331.68 293.14 332.64L291.96 333.6C291.06 332.66 289.16 331.32 287.58 330.46ZM297.18 327.4H297.48L297.76 327.32L298.74 327.86C296.22 333.7 289.98 336.2 283.44 337.16C283.34 336.74 283.04 336.12 282.8 335.78C288.98 335.04 295.02 332.66 297.18 327.62V327.4ZM290.68 327.4H297.58V328.68H290.68V327.4ZM292.3 325.52L293.96 325.9C291.94 328.26 288.78 330.44 284.4 331.98C284.22 331.64 283.78 331.1 283.46 330.82C287.7 329.5 290.74 327.42 292.3 325.52ZM127.22 348.7H128.72V351.06H127.22V348.7ZM119.62 350.16H136.4V353.36H134.98V351.38H121V353.36H119.62V350.16ZM127.34 352.72H128.62C128.52 354 128.38 355.56 128.24 356.54H126.94C127.1 355.52 127.26 353.96 127.34 352.72ZM123.06 360.54V361.46H133.02V360.54H123.06ZM123.06 362.34V363.28H133.02V362.34H123.06ZM123.06 358.76V359.64H133.02V358.76H123.06ZM121.6 357.84H134.54V364.2H121.6V357.84ZM129.28 365.06L130.3 364.2C132.72 364.84 135.34 365.66 136.96 366.24L135.66 367.12C134.2 366.56 131.78 365.74 129.28 365.06ZM123.76 353.24L123.4 356.08H132.3L132.52 353.24H123.76ZM122.54 352.34H134L133.6 356.98H121.92L122.54 352.34ZM125.34 364.18L126.58 364.96C125.02 365.94 122.2 366.76 119.84 367.16C119.64 366.86 119.22 366.4 118.94 366.12C121.28 365.76 124.12 364.98 125.34 364.18ZM119.16 354.06H123.34V354.16H132.56V354.06H136.88V355.2H132.56V355.1H123.34V355.2H119.16V354.06ZM143.5 350.12H156.44V351.56H143.5V350.12ZM143.5 354.78H156.42V356.2H143.5V354.78ZM143.4 359.56H156.46V360.98H143.4V359.56ZM142.66 350.12H144.14V357.38C144.14 360.42 143.78 364.56 141.4 367.22C141.16 366.92 140.56 366.42 140.24 366.22C142.44 363.74 142.66 360.18 142.66 357.36V350.12ZM155.84 350.12H157.32V365.06C157.32 366.04 157.08 366.5 156.42 366.76C155.74 367 154.58 367.02 152.68 367C152.62 366.6 152.38 365.94 152.16 365.54C153.58 365.6 154.94 365.58 155.32 365.58C155.7 365.56 155.84 365.44 155.84 365.06V350.12ZM148.94 350.66H150.46V366.92H148.94V350.66ZM163.82 351.92H169.9V365H163.82V363.64H168.5V353.26H163.82V351.92ZM162.92 351.92H164.32V366.6H162.92V351.92ZM163.72 357.48H169.24V358.82H163.72V357.48ZM165.98 348.66L167.6 348.96C167.2 350.2 166.7 351.58 166.3 352.48L165.1 352.18C165.44 351.22 165.82 349.7 165.98 348.66ZM172.74 351.86H178.88V353.26H172.74V351.86ZM178.36 351.86H179.76C179.76 351.86 179.76 352.42 179.76 352.64C179.44 361.82 179.16 364.92 178.36 365.9C177.92 366.48 177.46 366.66 176.76 366.72C176.08 366.8 174.9 366.76 173.78 366.7C173.74 366.26 173.56 365.64 173.28 365.24C174.58 365.34 175.78 365.36 176.24 365.36C176.64 365.36 176.88 365.3 177.1 365.04C177.76 364.32 178.08 361 178.36 352.18V351.86ZM173.16 348.62L174.6 348.96C173.86 351.94 172.68 354.88 171.3 356.78C171.04 356.54 170.42 356.12 170.06 355.92C171.42 354.16 172.52 351.4 173.16 348.62ZM172.24 357.06L173.4 356.38C174.54 357.8 175.92 359.74 176.56 360.92L175.28 361.72C174.68 360.5 173.34 358.52 172.24 357.06ZM189.06 352.94H202V354.16H189.06V352.94ZM190.24 358.34H200.68V359.48H190.24V358.34ZM189.34 361.08H201.56V362.32H189.34V361.08ZM194.6 348.86H196.06V364.44H194.6V348.86ZM190.5 350.32H200.5V356.84H190.36V355.64H199.02V351.52H190.5V350.32ZM183.62 349.98H187.94V351.32H183.62V349.98ZM187.4 349.98H187.62L187.86 349.9L188.88 350.22C187.96 352.32 186.46 355.42 185.24 357.8L183.88 357.42C185.12 355.08 186.66 351.84 187.4 350.16V349.98ZM185.44 355.68H188.72V357.02H185.26L185.44 355.68ZM188.1 355.68H188.4L188.68 355.64L189.54 355.86C188.94 361.68 187.2 365.26 184.6 367.14C184.36 366.84 183.8 366.3 183.46 366.1C186 364.4 187.6 361.14 188.1 355.98V355.68ZM185.5 358.62C187.12 364.14 190.84 365.14 195.92 365.14C196.76 365.14 201.08 365.14 202.14 365.12C201.9 365.46 201.62 366.14 201.52 366.58H195.88C190.1 366.58 186.24 365.36 184.3 359.08L185.5 358.62ZM216.82 351H218.28V356H216.82V351ZM214.42 358H215.74V365.72C215.74 366.4 215.6 366.74 215.12 366.92C214.62 367.1 213.84 367.12 212.68 367.12C212.62 366.8 212.42 366.32 212.26 365.98C213.1 366 213.88 366 214.12 366C214.36 365.98 214.42 365.92 214.42 365.7V358ZM220.24 348.68L221.56 349.08C221.1 349.84 220.58 350.54 220.16 351.06L219.12 350.68C219.5 350.12 220 349.24 220.24 348.68ZM213.78 349.12L214.86 348.7C215.36 349.26 215.92 350.08 216.14 350.64L215 351.12C214.78 350.56 214.28 349.74 213.78 349.12ZM220.2 357.82L221.08 357.14C221.9 357.66 222.84 358.46 223.28 359.04L222.36 359.8C221.94 359.18 221 358.36 220.2 357.82ZM211.52 363.08C213.16 362.88 215.54 362.58 217.9 362.24L217.94 363.36C215.72 363.7 213.46 364.04 211.7 364.3L211.52 363.08ZM216.86 357.02L217.76 357.94C216.26 358.42 214.06 358.76 212.24 358.94C212.18 358.68 212.02 358.26 211.88 357.98C213.64 357.78 215.72 357.44 216.86 357.02ZM212.32 350.68H223V351.78H212.32V350.68ZM212.98 353.08H222.46V354.12H212.98V353.08ZM211.6 355.52H223.42V356.66H211.6V355.52ZM211.58 360.04H223.46V361.2H211.58V360.04ZM218.14 357.14H219.44C219.52 363.04 220.74 366.06 222.14 366.04C222.48 366.04 222.66 365.6 222.76 364.3C223.02 364.56 223.42 364.74 223.72 364.86C223.5 366.68 223.02 367.26 222.02 367.26C219.56 367.26 218.34 363.44 218.14 357.14ZM221.48 361.64L222.58 362.16C221.42 364.2 219.26 365.92 217.1 366.9C216.94 366.66 216.6 366.3 216.34 366.08C218.42 365.18 220.46 363.58 221.48 361.64ZM205.98 354.76H211.12V355.96H205.98V354.76ZM206.1 349.42H211.06V350.62H206.1V349.42ZM205.98 357.44H211.12V358.64H205.98V357.44ZM205.16 352.04H211.62V353.28H205.16V352.04ZM206.68 360.14H211.1V365.96H206.68V364.72H209.84V361.38H206.68V360.14ZM205.94 360.14H207.18V366.9H205.94V360.14ZM229.88 360.64C231.56 360.64 232.92 362 232.92 363.68C232.92 365.36 231.56 366.72 229.88 366.72C228.2 366.72 226.82 365.36 226.82 363.68C226.82 362 228.2 360.64 229.88 360.64ZM229.88 365.7C231 365.7 231.9 364.8 231.9 363.68C231.9 362.56 231 361.66 229.88 361.66C228.76 361.66 227.84 362.56 227.84 363.68C227.84 364.8 228.76 365.7 229.88 365.7Z" fill="#6F6F6F"/>
</g>
<defs>
<filter id="filter0_d_2436_1599" x="0.5" y="0.5" width="363" height="445" filterUnits="userSpaceOnUse" color-interpolation-filters="sRGB">
<feFlood flood-opacity="0" result="BackgroundImageFix"/>
<feColorMatrix in="SourceAlpha" type="matrix" values="0 0 0 0 0 0 0 0 0 0 0 0 0 0 0 0 0 0 127 0" result="hardAlpha"/>
<feOffset dy="9"/>
<feGaussianBlur stdDeviation="10"/>
<feComposite in2="hardAlpha" operator="out"/>
<feColorMatrix type="matrix" values="0 0 0 0 0.418333 0 0 0 0 0.418333 0 0 0 0 0.418333 0 0 0 0.25 0"/>
<feBlend mode="normal" in2="BackgroundImageFix" result="effect1_dropShadow_2436_1599"/>
<feBlend mode="normal" in="SourceGraphic" in2="effect1_dropShadow_2436_1599" result="shape"/>
</filter>
<linearGradient id="paint0_linear_2436_1599" x1="182" y1="14" x2="182" y2="414" gradientUnits="userSpaceOnUse">
<stop stop-color="white"/>
<stop offset="1" stop-color="white" stop-opacity="0.5"/>
</linearGradient>
<radialGradient id="paint1_radial_2436_1599" cx="0" cy="0" r="1" gradientUnits="userSpaceOnUse" gradientTransform="translate(182 105.5) rotate(90) scale(50)">
<stop offset="0.464" stop-color="#FFFDD7"/>
<stop offset="1" stop-color="#F2EFA6"/>
</radialGradient>
</defs>
</svg>
