<svg width="48" height="49" viewBox="0 0 48 49" fill="none" xmlns="http://www.w3.org/2000/svg">
<path d="M40 24.4248C40 15.5883 32.8365 8.42483 24 8.42483C15.1634 8.42483 8 15.5883 8 24.4248C8 31.9285 13.1658 38.2246 20.1348 39.9536V29.3142H16.8354V24.4248H20.1348V22.318C20.1348 16.8721 22.5993 14.348 27.9458 14.348C28.9595 14.348 30.7085 14.5467 31.424 14.7455V19.1777C31.0464 19.138 30.3905 19.1181 29.5756 19.1181C26.952 19.1181 25.9384 20.1119 25.9384 22.6957V24.4248H31.1645L30.2667 29.3142H25.9384V40.3076C33.8606 39.3508 40 32.6052 40 24.4248Z" fill="#0866FF"/>
<path d="M30.2667 29.3142L31.1646 24.4248H25.9384V22.6956C25.9384 20.1118 26.952 19.1181 29.5756 19.1181C30.3905 19.1181 31.0464 19.1379 31.424 19.1777V14.7455C30.7085 14.5467 28.9595 14.3479 27.9458 14.3479C22.5993 14.3479 20.1348 16.8721 20.1348 22.318V24.4248H16.8354V29.3142H20.1348V39.9536C21.3727 40.2607 22.6671 40.4248 24 40.4248C24.6562 40.4248 25.3029 40.3844 25.9384 40.3076V29.3142H30.2667Z" fill="white"/>
</svg>
