<svg width="48" height="49" viewBox="0 0 48 49" fill="none" xmlns="http://www.w3.org/2000/svg">
<path d="M42.6863 45.4293C43.9664 45.4293 45.0044 44.3912 45.0044 43.1108V5.74311C45.0044 4.46253 43.9665 3.4248 42.6863 3.4248H5.31832C4.03774 3.4248 3 4.46253 3 5.74311V43.1108C3 44.3911 4.03757 45.4293 5.31832 45.4293H42.6863Z" fill="#3C5A99"/>
<path d="M31.9823 45.4292V29.1628H37.4422L38.2598 22.8234H31.9823V18.7762C31.9823 16.9408 32.492 15.6901 35.1239 15.6901L38.4808 15.6886V10.0187C37.9002 9.9414 35.9076 9.7688 33.5892 9.7688C28.7493 9.7688 25.4358 12.7231 25.4358 18.1484V22.8234H19.9619V29.1628H25.4358V45.4292H31.9823Z" fill="white"/>
</svg>
