<svg width="100" height="21" viewBox="0 0 100 21" fill="none" xmlns="http://www.w3.org/2000/svg">
<g clip-path="url(#clip0_4075_6559)">
<path d="M7.76054 3.00721C6.59278 3.00721 6.25514 3.52514 6.25514 4.66751V6.56257H9.37002L9.05779 9.62419H6.25635V18.9156H2.51827V9.62419H0V6.56257H2.51827V4.71954C2.51827 1.6313 3.76349 4.795e-05 7.23776 4.795e-05C7.96578 -0.00164622 8.69332 0.0415543 9.416 0.129531V3.01084L7.76054 3.00721Z" fill="#1877F2"/>
<path d="M9.62915 12.3495C9.62915 8.89818 11.264 6.29883 14.6899 6.29883C16.5583 6.29883 17.6995 7.25967 18.2453 8.45286V6.56264H21.826V18.9156H18.2453V17.0471C17.7261 18.2416 16.5583 19.1757 14.6899 19.1757C11.264 19.1757 9.62915 16.58 9.62915 13.1252V12.3495ZM13.366 13.1808C13.366 15.0226 14.0401 16.2424 15.779 16.2424C17.311 16.2424 18.0891 15.1267 18.0891 13.3623V12.122C18.0891 10.3576 17.311 9.24186 15.779 9.24186C14.0401 9.24186 13.366 10.4617 13.366 12.3035V13.1808Z" fill="#1877F2"/>
<path d="M29.6121 6.30231C31.0644 6.30231 32.4402 6.61451 33.1929 7.13245L32.3628 9.78021C31.5842 9.40943 30.7334 9.21436 29.8712 9.20902C27.8466 9.20902 26.9669 10.3768 26.9669 12.3759V13.102C26.9669 15.1011 27.849 16.2689 29.8712 16.2689C30.7334 16.2635 31.5842 16.0686 32.3628 15.6977L33.1929 18.3443C32.4402 18.8635 31.0655 19.1757 29.6121 19.1757C25.2255 19.1757 23.2275 16.8135 23.2275 13.0246V12.4534C23.2275 8.66447 25.2255 6.30231 29.6121 6.30231Z" fill="#1877F2"/>
<path d="M33.6853 13.2109V12.1218C33.6853 8.61849 35.6832 6.31317 39.759 6.31317C43.5999 6.31317 45.2867 8.64873 45.2867 12.0746V14.0471H37.4209C37.4996 15.734 38.2523 16.4867 40.3253 16.4867C41.7278 16.4867 43.2066 16.2011 44.2969 15.734L44.9805 18.2935C43.9943 18.8138 41.9697 19.2022 40.1801 19.2022C35.4496 19.201 33.6853 16.8413 33.6853 13.2109ZM37.4221 11.6014H41.9383V11.2904C41.9383 9.94114 41.3937 8.87017 39.7601 8.87017C38.072 8.87139 37.4221 9.9363 37.4221 11.5966V11.6014Z" fill="#1877F2"/>
<path d="M59.1385 13.1286C59.1385 16.5798 57.4782 19.1792 54.0559 19.1792C52.1875 19.1792 50.8902 18.2451 50.371 17.0506V18.919H46.8423V0.359374L50.5793 0.0205383V8.2736C51.1237 7.18449 52.3182 6.30109 54.0572 6.30109C57.4829 6.30109 59.1396 8.89682 59.1396 12.3517L59.1385 13.1286ZM55.4016 12.2719C55.4016 10.5329 54.7275 9.23565 52.9366 9.23565C51.4045 9.23565 50.5743 10.3248 50.5743 12.0903V13.3876C50.5743 15.152 51.4045 16.2422 52.9366 16.2422C54.7275 16.2422 55.4016 14.945 55.4016 13.2061V12.2719Z" fill="#1877F2"/>
<path d="M60.3887 13.05V12.428C60.3887 8.8714 62.4133 6.30231 66.5398 6.30231C70.6663 6.30231 72.692 8.8714 72.692 12.428V13.05C72.692 16.6054 70.6676 19.1757 66.5411 19.1757C62.4144 19.1757 60.3887 16.6054 60.3887 13.05ZM68.9539 12.1678C68.9539 10.5329 68.2787 9.23566 66.5338 9.23566C64.7887 9.23566 64.1195 10.5329 64.1195 12.1678V13.3101C64.1195 14.945 64.7947 16.2422 66.5338 16.2422C68.2726 16.2422 68.9539 14.945 68.9539 13.3101V12.1678Z" fill="#1877F2"/>
<path d="M73.9351 13.05V12.428C73.9351 8.8714 75.9597 6.30231 80.0862 6.30231C84.2127 6.30231 86.2373 8.8714 86.2373 12.428V13.05C86.2373 16.6054 84.2127 19.1757 80.0862 19.1757C75.9597 19.1757 73.9351 16.6054 73.9351 13.05ZM82.5003 12.1678C82.5003 10.5329 81.8251 9.23566 80.0862 9.23566C78.3471 9.23566 77.6732 10.5329 77.6732 12.1678V13.3101C77.6732 14.945 78.3471 16.2422 80.0862 16.2422C81.8251 16.2422 82.5003 14.945 82.5003 13.3101V12.1678Z" fill="#1877F2"/>
<path d="M91.3753 12.4534L95.0602 6.56249H99.0305L95.1642 12.6615L99.1867 18.9154H95.2163L91.3753 12.8648V18.9154H87.6372V0.359374L91.3753 0.0205383V12.4534Z" fill="#1877F2"/>
</g>
<defs>
<clipPath id="clip0_4075_6559">
<rect width="100" height="20.6349" fill="white"/>
</clipPath>
</defs>
</svg>
