<svg width="100" height="33" viewBox="0 0 100 33" fill="none" xmlns="http://www.w3.org/2000/svg">
<g clip-path="url(#clip0_4075_6548)">
<path d="M12.3154 0.00286865H13.2047C16.2919 0.0699828 19.3289 1.31159 21.5101 3.50958C20.7047 4.33173 19.8826 5.12032 19.094 5.94247C17.8691 4.83508 16.3926 3.97938 14.7819 3.67737C12.3993 3.17401 9.83222 3.62703 7.83557 4.98609C5.65436 6.41227 4.17785 8.82837 3.85906 11.4123C3.50671 13.9626 4.22819 16.6472 5.88926 18.627C7.48322 20.5566 9.91611 21.7646 12.4329 21.8485C14.7819 21.9827 17.2315 21.2613 18.943 19.617C20.2852 18.4592 20.906 16.6975 21.1074 14.9861C18.3221 14.9861 15.5369 15.0029 12.7517 14.9861V11.5297H24.4799C25.0839 15.2378 24.2114 19.4156 21.3926 22.0666C19.5134 23.9458 16.9128 25.0532 14.2617 25.2713C11.6946 25.523 9.04363 25.0364 6.76175 23.7948C4.02685 22.3351 1.84564 19.8686 0.771812 16.966C-0.234899 14.2982 -0.251678 11.278 0.68792 8.59347C1.54362 6.14381 3.18792 3.97938 5.30201 2.46931C7.33222 0.976023 9.79866 0.153875 12.3154 0.00286865Z" fill="#3780FF"/>
<path d="M79.5974 0.875366H83.188V24.8351C81.9967 24.8351 80.7887 24.8519 79.5974 24.8183C79.6142 16.8485 79.5974 8.86194 79.5974 0.875366V0.875366Z" fill="#38B137"/>
<path d="M32.4664 9.18073C34.6812 8.76127 37.0805 9.23106 38.9094 10.5566C40.5705 11.7311 41.7282 13.5767 42.0805 15.5901C42.5336 17.9223 41.9631 20.4727 40.453 22.3183C38.8255 24.3821 36.1577 25.4895 33.5571 25.3217C31.1745 25.1874 28.8591 23.9962 27.4497 22.0499C25.8557 19.9022 25.4698 16.9492 26.3423 14.4324C27.2148 11.7311 29.6812 9.66731 32.4664 9.18073V9.18073ZM32.9698 12.3686C32.0638 12.6035 31.2248 13.1237 30.6208 13.8619C28.9933 15.8082 29.094 18.9794 30.8893 20.7915C31.9128 21.8317 33.4564 22.3183 34.8826 22.0331C36.2081 21.7982 37.3658 20.9089 38.0034 19.7344C39.1107 17.7378 38.792 14.9861 37.0973 13.4257C36.0067 12.419 34.4128 11.9995 32.9698 12.3686Z" fill="#FA3913"/>
<path d="M50.2517 9.18074C52.7853 8.69417 55.5537 9.39886 57.4497 11.1774C60.5369 13.9458 60.8725 19.1304 58.2383 22.3183C56.6443 24.3318 54.0604 25.4391 51.5101 25.3217C49.0772 25.2546 46.6779 24.0465 45.2349 22.0499C43.6074 19.8519 43.2551 16.8318 44.1779 14.2646C45.1007 11.6472 47.5168 9.65054 50.2517 9.18074V9.18074ZM50.7551 12.3687C49.849 12.6036 49.0101 13.1237 48.4061 13.8452C46.7953 15.7579 46.8624 18.8787 48.5906 20.7076C49.6141 21.7982 51.2081 22.3351 52.6846 22.0331C53.9933 21.7814 55.1678 20.9089 55.8054 19.7344C56.896 17.721 56.5772 14.9693 54.8658 13.4089C53.7752 12.4022 52.1812 11.9995 50.7551 12.3687Z" fill="#FCBD06"/>
<path d="M65.3355 10.1539C67.265 8.94585 69.8322 8.61028 71.9127 9.65054C72.5671 9.93578 73.104 10.4224 73.6241 10.9089C73.6409 10.4559 73.6241 9.98612 73.6409 9.51632C74.765 9.5331 75.8892 9.51632 77.0301 9.53309V24.3318C77.0134 26.5633 76.4429 28.9291 74.8322 30.5566C73.0704 32.3519 70.3691 32.9056 67.9362 32.5365C65.3355 32.1505 63.0704 30.2546 62.0637 27.8552C63.0704 27.3687 64.1275 26.9828 65.1677 26.5297C65.755 27.9056 66.9463 29.0801 68.4395 29.3485C69.9328 29.617 71.661 29.2479 72.6342 28.0062C73.6744 26.7311 73.6744 24.9861 73.6241 23.4257C72.8523 24.1807 71.963 24.8519 70.8892 25.1036C68.557 25.7579 65.9899 24.9526 64.1946 23.3754C62.3825 21.7982 61.3087 19.3653 61.4093 16.9492C61.4597 14.2143 63.0033 11.5801 65.3355 10.1539V10.1539ZM68.8087 12.3016C67.7852 12.4693 66.8288 13.0398 66.1744 13.8284C64.5973 15.7076 64.5973 18.7109 66.1912 20.5566C67.0973 21.6472 68.557 22.2512 69.9664 22.1002C71.2919 21.966 72.5167 21.1271 73.1711 19.9693C74.2785 18.0063 74.0939 15.3385 72.6006 13.6271C71.6778 12.57 70.2013 12.0499 68.8087 12.3016V12.3016Z" fill="#3780FF"/>
<path d="M87.5 11.0096C89.5134 9.13039 92.6175 8.4928 95.2014 9.48273C97.651 10.4056 99.2114 12.7378 100 15.1371C96.3591 16.6472 92.7349 18.1405 89.094 19.6505C89.5973 20.6069 90.3691 21.4794 91.4094 21.8317C92.8691 22.3519 94.6141 22.1673 95.839 21.1941C96.3255 20.825 96.7114 20.3384 97.0806 19.8686C98.0034 20.4894 98.9262 21.0935 99.849 21.7143C98.5403 23.6774 96.3423 25.0532 93.9765 25.2713C91.3591 25.5901 88.5738 24.5834 86.8792 22.5364C84.094 19.3149 84.3624 13.9123 87.5 11.0096V11.0096ZM89.2953 14.1136C88.7249 14.9358 88.49 15.9425 88.5067 16.9324C90.9396 15.9257 93.3725 14.919 95.8054 13.8955C95.4027 12.9559 94.4296 12.3854 93.4396 12.2344C91.8457 11.9492 90.1846 12.8049 89.2953 14.1136V14.1136Z" fill="#FA3913"/>
</g>
<defs>
<clipPath id="clip0_4075_6548">
<rect width="100" height="32.64" fill="white"/>
</clipPath>
</defs>
</svg>
