<svg width="142" height="19" viewBox="0 0 142 19" fill="none" xmlns="http://www.w3.org/2000/svg">
<path d="M5.84118 0.5C0.0898725 0.5 -2.18772 8.64549 2.57925 12.1659L8.71894 16.7L10.9126 18.5L13.1063 16.7L19.2871 12.3528C24.2271 8.87842 21.9779 0.500003 16.1052 0.500003C13.8799 0.500002 11.9581 1.84649 10.9573 3.81718C9.97041 1.8487 8.05855 0.5 5.84118 0.5Z" fill="#EB7F5C"/>
<path d="M35.8412 0.5C30.0899 0.5 27.8123 8.64549 32.5792 12.1659L38.7189 16.7L40.9126 18.5L43.1063 16.7L49.2871 12.3528C54.2271 8.87842 51.9779 0.500003 46.1052 0.500003C43.8799 0.500002 41.9581 1.84649 40.9573 3.81718C39.9704 1.8487 38.0585 0.5 35.8412 0.5Z" fill="#EB7F5C"/>
<path d="M65.8412 0.5C60.0899 0.5 57.8123 8.64549 62.5792 12.1659L68.7189 16.7L70.9126 18.5L73.1063 16.7L79.2871 12.3528C84.2271 8.87842 81.9779 0.500003 76.1052 0.500003C73.8799 0.500002 71.9581 1.84649 70.9573 3.81718C69.9704 1.8487 68.0585 0.5 65.8412 0.5Z" fill="#EB7F5C"/>
<path d="M95.8412 0.5C90.0899 0.5 87.8123 8.64549 92.5792 12.1659L98.7189 16.7L100.913 18.5L103.106 16.7L109.287 12.3528C114.227 8.87842 111.978 0.500003 106.105 0.500003C103.88 0.500002 101.958 1.84649 100.957 3.81718C99.9704 1.8487 98.0585 0.5 95.8412 0.5Z" fill="#EB7F5C"/>
<path d="M125.841 0.5C120.09 0.5 117.812 8.64549 122.579 12.1659L128.719 16.7L130.913 18.5L133.106 16.7L139.287 12.3528C144.227 8.87842 141.978 0.500003 136.105 0.500003C133.88 0.500002 131.958 1.84649 130.957 3.81718C129.97 1.8487 128.059 0.5 125.841 0.5Z" fill="#EB7F5C"/>
</svg>
