<svg width="111" height="111" viewBox="0 0 111 111" fill="none" xmlns="http://www.w3.org/2000/svg">
<path d="M110.5 55.6963C110.5 70.7951 110.042 104.216 107.61 107.456C105.178 110.696 70.7768 110.696 55.5 110.696C25.1243 110.696 0.5 86.072 0.5 55.6963C0.5 25.3206 25.1243 0.696289 55.5 0.696289C85.8757 0.696289 110.5 25.3206 110.5 55.6963Z" fill="white"/>
<path d="M71.1875 66.3838V77.6963H40.1562V71.7275L54.9062 55.8838C56.4479 54.1546 57.625 52.6859 58.4375 51.4775C59.2917 50.2275 59.8958 49.0921 60.25 48.0713C60.625 47.0296 60.8125 45.9984 60.8125 44.9775C60.8125 43.2067 60.3021 41.7067 59.2812 40.4775C58.2812 39.2484 56.8021 38.6338 54.8438 38.6338C52.7396 38.6338 51.1458 39.3213 50.0625 40.6963C48.9792 42.0505 48.4375 43.9255 48.4375 46.3213H39.5625L39.5 46.1338C39.4375 43.3838 40.0312 40.9046 41.2812 38.6963C42.5104 36.5088 44.2917 34.7692 46.625 33.4775C48.9792 32.1859 51.75 31.54 54.9375 31.54C58.0417 31.54 60.7292 32.0921 63 33.1963C65.2292 34.3213 66.9479 35.8838 68.1562 37.8838C69.3646 39.8838 69.9688 42.1963 69.9688 44.8213C69.9688 46.6546 69.6458 48.3525 69 49.915C68.3542 51.4984 67.3438 53.1859 65.9688 54.9775C64.5938 56.7484 62.8229 58.7796 60.6562 61.0713L51.8125 70.5713L51.875 70.7275H63.6562L64.125 66.3838H71.1875Z" fill="#5AA98E"/>
</svg>
