<svg width="30" height="30" viewBox="0 0 30 30" fill="none" xmlns="http://www.w3.org/2000/svg">
<path fill-rule="evenodd" clip-rule="evenodd" d="M15 1.25C15.4758 1.25 15.9103 1.52009 16.1209 1.94672L19.6929 9.18308L27.6808 10.3506C28.1515 10.4194 28.5424 10.7495 28.6891 11.202C28.8358 11.6545 28.713 12.151 28.3722 12.4829L22.5932 18.1117L23.957 26.0637C24.0375 26.5327 23.8447 27.0067 23.4597 27.2863C23.0747 27.566 22.5644 27.6028 22.1432 27.3813L15 23.6248L7.85685 27.3813C7.43571 27.6028 6.92534 27.566 6.54037 27.2863C6.1554 27.0067 5.96259 26.5327 6.04303 26.0637L7.40688 18.1117L1.62787 12.4829C1.2871 12.151 1.16426 11.6545 1.31098 11.202C1.4577 10.7495 1.84855 10.4194 2.31925 10.3506L10.3072 9.18308L13.8792 1.94672C14.0897 1.52009 14.5243 1.25 15 1.25ZM15 5.32407L12.2584 10.8783C12.0765 11.2468 11.725 11.5024 11.3183 11.5619L5.18555 12.4583L9.6222 16.7796C9.91704 17.0667 10.0516 17.4806 9.98205 17.8863L8.93526 23.9896L14.4182 21.1062C14.7825 20.9146 15.2176 20.9146 15.5819 21.1062L21.0648 23.9896L20.018 17.8863C19.9485 17.4806 20.083 17.0667 20.3779 16.7796L24.8145 12.4583L18.6818 11.5619C18.2751 11.5024 17.9236 11.2468 17.7417 10.8783L15 5.32407Z" fill="#D9D9D9"/>
<path d="M12.2584 10.8783L15 5.32407L17.7417 10.8783C17.9236 11.2468 18.2751 11.5024 18.6818 11.5619L24.8145 12.4583L20.3779 16.7796C20.083 17.0667 19.9485 17.4806 20.018 17.8863L21.0648 23.9896L15.5819 21.1062C15.2176 20.9146 14.7825 20.9146 14.4182 21.1062L8.93526 23.9896L9.98205 17.8863C10.0516 17.4806 9.91704 17.0667 9.6222 16.7796L5.18555 12.4583L11.3183 11.5619C11.725 11.5024 12.0765 11.2468 12.2584 10.8783Z" fill="#D9D9D9"/>
</svg>
