<svg width="80" height="80" viewBox="0 0 80 80" fill="none" xmlns="http://www.w3.org/2000/svg">
<circle cx="40" cy="40" r="38" fill="url(#paint0_radial_2466_2242)" stroke="white" stroke-width="4"/>
<path d="M48.8222 42.1594C53.2533 42.7325 57.2612 39.9747 57.7742 35.9997C58.2871 32.0247 55.1004 27.571 50.6694 26.998C46.2383 26.4249 42.2409 29.9494 41.7279 33.9244C41.215 37.8994 44.3912 41.5864 48.8222 42.1594Z" fill="white"/>
<path d="M48.2237 40.5064C52.1086 41.0088 55.6136 38.6603 56.0523 35.2608C56.491 31.8613 53.686 28.0422 49.8011 27.5398C45.9163 27.0373 42.4226 30.0418 41.9839 33.4413C41.5452 36.8408 44.3389 40.0039 48.2237 40.5064Z" fill="#252525"/>
<ellipse cx="46.9062" cy="32.1911" rx="2.93571" ry="2.47748" transform="rotate(-21.4612 46.9062 32.1911)" fill="white"/>
<ellipse cx="50.8113" cy="35.6" rx="1.2" ry="1.2" fill="white"/>
<path d="M25.623 40.9852C30.054 41.5583 34.062 38.8005 34.5749 34.8255C35.0879 30.8505 31.9012 26.3969 27.4702 25.8238C23.0391 25.2507 19.0417 28.7752 18.5287 32.7502C18.0157 36.7252 21.1919 40.4122 25.623 40.9852Z" fill="white"/>
<path d="M25.0226 39.3329C28.9074 39.8354 32.4124 37.4868 32.8511 34.0873C33.2898 30.6878 30.4849 26.8687 26.6 26.3663C22.7151 25.8639 19.2214 28.8683 18.7827 32.2678C18.344 35.6673 21.1377 38.8305 25.0226 39.3329Z" fill="#252525"/>
<ellipse cx="23.7312" cy="31.0801" rx="2.93571" ry="2.41028" transform="rotate(-21.4611 23.7312 31.0801)" fill="white"/>
<ellipse cx="26.7973" cy="34.8001" rx="1.6" ry="1.2" fill="white"/>
<path d="M33.5515 48.3681C33.5515 50.6413 36.0835 51.4339 38.3424 51.4333C40.6014 51.4327 43.4512 51.0227 43.4512 48.7494C43.4512 46.4761 41.058 47.7458 38.7991 47.7464C36.5401 47.7471 33.5515 46.0948 33.5515 48.3681Z" fill="#252525"/>
<defs>
<radialGradient id="paint0_radial_2466_2242" cx="0" cy="0" r="1" gradientUnits="userSpaceOnUse" gradientTransform="translate(40 40) rotate(90) scale(40)">
<stop offset="0.464" stop-color="#FFFDD7"/>
<stop offset="1" stop-color="#F2EFA6"/>
</radialGradient>
</defs>
</svg>
