<svg width="373" height="339" viewBox="0 0 373 339" fill="none" xmlns="http://www.w3.org/2000/svg">
<g filter="url(#filter0_f_3486_5673)">
<path d="M171.467 226.259C142.885 226.645 82.5301 231.212 62.2216 233.114C28.1373 236.317 25.4289 245.332 20.8173 256.683C16.2058 268.034 31.2564 279.738 62.2206 293.183C84.8692 303.001 126.37 314.076 166.847 316.15C232.063 319.505 281.669 320.108 311.74 302.34C341.81 284.571 356.703 266.936 350.962 250.941C345.22 234.947 328.434 224.954 305.186 219.354C266.435 210.019 274.208 224.889 171.467 226.259Z" fill="#252525" fill-opacity="0.2"/>
</g>
<g filter="url(#filter1_f_3486_5673)">
<path d="M183.911 232.732C155.317 233.019 94.9374 236.405 74.6204 237.816C40.5218 240.191 30.6728 238.358 27.6629 252.376C24.8341 265.299 43.6426 279.175 74.6198 289.145C97.2779 296.425 129.142 301.934 148.224 303.253C167.306 304.572 238.156 306.228 275.82 295.811C313.484 285.395 326.628 263.919 327.76 258.147C328.892 252.376 336.741 236.885 313.484 232.732C274.717 225.81 286.695 231.716 183.911 232.732Z" fill="#252525" fill-opacity="0.4"/>
</g>
<g filter="url(#filter2_bd_3486_5673)">
<path d="M180.616 285.881C155.161 285.126 101.411 276.215 83.3247 272.501C52.9701 266.251 38.0843 265.261 35.4049 228.365C32.8867 194.352 36.8438 163.645 64.4197 137.405C84.59 118.246 112.799 104.322 148.847 100.274C206.926 93.7267 263.889 112.528 288.736 154.016C300.347 173.41 301.894 189.367 306.231 209.155C310.569 228.943 313.904 217.909 321.211 233.958C328.519 250.007 272.114 288.554 180.616 285.881Z" fill="url(#paint0_radial_3486_5673)" shape-rendering="crispEdges"/>
</g>
<path d="M81.0419 215.659C81.765 209.555 79.6295 204.285 76.2721 203.888C72.9146 203.491 69.6067 208.118 68.8836 214.223C68.1604 220.327 70.296 225.597 73.6534 225.994C77.0108 226.391 80.3188 221.764 81.0419 215.659Z" fill="#252525"/>
<path d="M104.788 228.396C108.127 228.828 111.469 224.257 112.252 218.186C113.036 212.115 110.964 206.844 107.625 206.412C104.287 205.98 100.945 210.552 100.162 216.622C99.3781 222.693 101.45 227.965 104.788 228.396Z" fill="#252525"/>
<path d="M178.317 79C165.89 79 165.89 59.5799 178.317 59.5799C190.744 59.5799 190.744 79 178.317 79ZM182.269 52.7443C181.281 53.1903 180.213 53.433 179.13 53.4582C178.046 53.4835 176.969 53.2907 175.961 52.8912C174.952 52.4917 174.034 51.8935 173.258 51.1319C172.483 50.3703 171.867 49.4605 171.446 48.4561C171.026 47.4516 170.809 46.3727 170.809 45.2828C170.808 44.1929 171.025 43.1139 171.445 42.1092C171.865 41.1045 172.48 40.1944 173.255 39.4323C174.03 38.6703 174.948 38.0716 175.956 37.6716L176.952 37.1568C177.35 36.8422 177.89 36.5848 178.288 36.2987C179.401 35.5255 180.474 34.695 181.502 33.8105L181.644 33.6389C182.07 33.1812 182.468 32.7236 182.867 32.2374L183.976 30.7502L184.402 30.0637C184.893 29.1366 185.33 28.1816 185.71 27.2036C185.71 26.8318 185.966 26.4028 186.108 26.031C186.106 25.9834 186.106 25.9356 186.108 25.888C186.222 25.2778 186.307 24.6772 186.364 24.0861C186.38 23.9818 186.38 23.8758 186.364 23.7715C186.161 22.9569 186.047 22.1226 186.023 21.2832C186.023 21.083 185.852 20.9114 185.796 20.7398L185.568 20.2822C185.312 19.9676 185.113 19.6244 184.857 19.3384L183.492 18.1085V17.9655C182.696 17.5937 181.928 17.1933 181.075 16.8787H180.848C180.297 16.8223 179.753 16.7073 179.227 16.5355C178.718 16.4503 178.206 16.393 177.691 16.3639H177.492C176.554 16.3639 175.615 16.5355 174.648 16.7071L172.942 17.4221H172.686L171.52 18.2515L170.781 18.9379L170.525 19.1954C170.184 19.6244 169.899 20.0534 169.587 20.4824C169.274 20.9114 169.587 20.4824 169.587 20.6254C169.171 21.488 168.838 22.3882 168.591 23.3139C167.34 27.7184 161.624 29.0341 157.927 27.6612C155.97 26.8218 154.411 25.2539 153.577 23.2853C152.808 21.2394 152.808 18.9817 153.577 16.9359C154.737 13.3108 156.729 10.0111 159.392 7.30332C162.054 4.59554 165.313 2.55562 168.904 1.34834C182.895 -3.25642 199.957 4.20843 202.687 19.5386C204.991 33.8105 194.213 46.8239 182.269 52.7443Z" fill="url(#paint1_linear_3486_5673)"/>
<defs>
<filter id="filter0_f_3486_5673" x="0" y="196.293" width="372.176" height="141.72" filterUnits="userSpaceOnUse" color-interpolation-filters="sRGB">
<feFlood flood-opacity="0" result="BackgroundImageFix"/>
<feBlend mode="normal" in="SourceGraphic" in2="BackgroundImageFix" result="shape"/>
<feGaussianBlur stdDeviation="10" result="effect1_foregroundBlur_3486_5673"/>
</filter>
<filter id="filter1_f_3486_5673" x="17.3828" y="219.417" width="322.557" height="94.8126" filterUnits="userSpaceOnUse" color-interpolation-filters="sRGB">
<feFlood flood-opacity="0" result="BackgroundImageFix"/>
<feBlend mode="normal" in="SourceGraphic" in2="BackgroundImageFix" result="shape"/>
<feGaussianBlur stdDeviation="5" result="effect1_foregroundBlur_3486_5673"/>
</filter>
<filter id="filter2_bd_3486_5673" x="4.76367" y="69" width="347.082" height="247.013" filterUnits="userSpaceOnUse" color-interpolation-filters="sRGB">
<feFlood flood-opacity="0" result="BackgroundImageFix"/>
<feGaussianBlur in="BackgroundImageFix" stdDeviation="10"/>
<feComposite in2="SourceAlpha" operator="in" result="effect1_backgroundBlur_3486_5673"/>
<feColorMatrix in="SourceAlpha" type="matrix" values="0 0 0 0 0 0 0 0 0 0 0 0 0 0 0 0 0 0 127 0" result="hardAlpha"/>
<feOffset/>
<feGaussianBlur stdDeviation="15"/>
<feComposite in2="hardAlpha" operator="out"/>
<feColorMatrix type="matrix" values="0 0 0 0 0.92 0 0 0 0 0.985263 0 0 0 0 1 0 0 0 1 0"/>
<feBlend mode="normal" in2="effect1_backgroundBlur_3486_5673" result="effect2_dropShadow_3486_5673"/>
<feBlend mode="normal" in="SourceGraphic" in2="effect2_dropShadow_3486_5673" result="shape"/>
</filter>
<radialGradient id="paint0_radial_3486_5673" cx="0" cy="0" r="1" gradientUnits="userSpaceOnUse" gradientTransform="translate(96.2812 192.507) rotate(92.7459) scale(171.215 262.831)">
<stop stop-color="#D1F0F7" stop-opacity="0.9"/>
<stop offset="0.444" stop-color="#CCE0F9" stop-opacity="0.9"/>
<stop offset="0.659" stop-color="#C7CCFB" stop-opacity="0.8"/>
<stop offset="0.844" stop-color="#BDABFF" stop-opacity="0.8"/>
</radialGradient>
<linearGradient id="paint1_linear_3486_5673" x1="178" y1="0" x2="178" y2="79" gradientUnits="userSpaceOnUse">
<stop stop-color="#FF6B6B"/>
<stop offset="0.344" stop-color="#C25151"/>
<stop offset="1" stop-color="#994040"/>
</linearGradient>
</defs>
</svg>
