<svg width="60" height="60" viewBox="0 0 60 60" fill="none" xmlns="http://www.w3.org/2000/svg">
<circle cx="30" cy="30" r="28" fill="url(#paint0_radial_2466_2326)" stroke="white" stroke-width="4"/>
<path d="M18.5243 27.2529C14.7019 27.5596 11.3724 26.233 11.4545 27.2529C11.5366 28.2728 14.7019 28.8509 18.5243 28.5443C22.3467 28.2376 25.3788 27.1622 25.2966 26.1424C25.2145 25.1225 22.3467 26.9462 18.5243 27.2529Z" fill="#252525"/>
<path d="M29.6713 39.0097C30.8781 39.1657 32.4287 38.883 32.5236 38.1473C32.6186 37.4116 31.2219 36.5016 30.0152 36.3455C28.8084 36.1894 27.2398 36.8053 27.1449 37.541C27.0499 38.2767 28.4646 38.8536 29.6713 39.0097Z" fill="#252525"/>
<path d="M41.0476 29.9496C44.8506 30.4414 48.0397 30.0175 48.1706 29.0028C48.3016 27.988 46.1268 29.4947 42.3238 29.0029C38.5208 28.511 34.5297 26.2069 34.3988 27.2216C34.2678 28.2364 37.2446 29.4577 41.0476 29.9496Z" fill="#252525"/>
<defs>
<radialGradient id="paint0_radial_2466_2326" cx="0" cy="0" r="1" gradientUnits="userSpaceOnUse" gradientTransform="translate(30 30) rotate(90) scale(30)">
<stop offset="0.464" stop-color="#FFFDD7"/>
<stop offset="1" stop-color="#F2EFA6"/>
</radialGradient>
</defs>
</svg>
