<svg width="111" height="111" viewBox="0 0 111 111" fill="none" xmlns="http://www.w3.org/2000/svg">
<path d="M110.5 55.6963C110.5 70.7951 110.042 104.216 107.61 107.456C105.178 110.696 70.7768 110.696 55.5 110.696C25.1243 110.696 0.5 86.072 0.5 55.6963C0.5 25.3206 25.1243 0.696289 55.5 0.696289C85.8757 0.696289 110.5 25.3206 110.5 55.6963Z" fill="white"/>
<path d="M54.9375 78.3525C52.0208 78.3525 49.3854 77.8421 47.0312 76.8213C44.6562 75.8005 42.7708 74.3213 41.375 72.3838C40 70.4255 39.3438 68.0609 39.4062 65.29L39.4688 65.1025H48.3125C48.3125 66.29 48.5833 67.363 49.125 68.3213C49.6667 69.2588 50.4271 69.9984 51.4062 70.54C52.4062 71.0817 53.5833 71.3525 54.9375 71.3525C57.0417 71.3525 58.6979 70.7692 59.9062 69.6025C61.1354 68.415 61.75 66.7692 61.75 64.665C61.75 62.54 61.1458 60.8838 59.9375 59.6963C58.7292 58.5088 56.9062 57.915 54.4688 57.915H49.5312V51.0713H54.6562C56.1354 51.0713 57.3333 50.8109 58.25 50.29C60.1042 49.3109 61.0312 47.488 61.0312 44.8213C61.0312 42.8838 60.5104 41.363 59.4688 40.2588C58.4271 39.1338 56.9167 38.5713 54.9375 38.5713C53.7292 38.5713 52.6771 38.8005 51.7812 39.2588C49.8438 40.238 48.875 41.8942 48.875 44.2275H40.0312L39.9688 44.04C39.9062 41.6234 40.5 39.4671 41.75 37.5713C43 35.6963 44.7604 34.2275 47.0312 33.165C49.3229 32.0817 51.9375 31.54 54.875 31.54C59.4792 31.54 63.1771 32.665 65.9688 34.915C68.7604 37.1442 70.1562 40.3109 70.1562 44.415C70.1562 46.54 69.5625 48.4567 68.375 50.165C67.2083 51.8734 65.4583 53.2692 63.125 54.3525C65.6458 55.2484 67.5625 56.6234 68.875 58.4775C70.2083 60.3317 70.875 62.488 70.875 64.9463C70.875 67.7171 70.1875 70.1025 68.8125 72.1025C67.4375 74.1025 65.5417 75.6442 63.125 76.7275C60.7292 77.8109 58 78.3525 54.9375 78.3525Z" fill="#5AA98E"/>
</svg>
