<svg width="80" height="80" viewBox="0 0 80 80" fill="none" xmlns="http://www.w3.org/2000/svg">
<circle cx="40" cy="40" r="37.5" stroke="white" stroke-width="5"/>
<path d="M37.5 57C37.5 58.3807 38.6193 59.5 40 59.5C41.3807 59.5 42.5 58.3807 42.5 57L37.5 57ZM41.7678 22.2322C40.7915 21.2559 39.2085 21.2559 38.2322 22.2322L22.3223 38.1421C21.346 39.1184 21.346 40.7014 22.3223 41.6777C23.2986 42.654 24.8816 42.654 25.8579 41.6777L40 27.5355L54.1421 41.6777C55.1184 42.654 56.7014 42.654 57.6777 41.6777C58.654 40.7014 58.654 39.1184 57.6777 38.1421L41.7678 22.2322ZM42.5 57L42.5 24L37.5 24L37.5 57L42.5 57Z" fill="white"/>
</svg>
