<svg width="263" height="50" viewBox="0 0 263 50" fill="none" xmlns="http://www.w3.org/2000/svg">
<path d="M53.2182 6.51077C47.8635 6.50612 42.6663 8.33646 38.4791 11.7015C34.2884 8.33366 29.0862 6.50315 23.7271 6.51077C17.434 6.51163 11.3989 9.03269 6.9493 13.5194C2.49971 18.0061 -5.86595e-08 24.0911 0 30.4358V43.2934C0 43.7266 0.170683 44.1421 0.474499 44.4484C0.778315 44.7547 1.19038 44.9268 1.62004 44.9268H16.8484C17.278 44.9268 17.6901 44.7547 17.9939 44.4484C18.2977 44.1421 18.4684 43.7266 18.4684 43.2934V30.5534C18.4538 29.1581 18.9788 27.8119 19.932 26.8002C20.8853 25.7885 22.1919 25.1909 23.5748 25.134C24.8043 25.0973 26.0067 25.5026 26.9671 26.2774L31.2699 29.727C33.3146 31.3641 35.8487 32.2552 38.4597 32.2552C41.0707 32.2552 43.6048 31.3641 45.6494 29.727L49.9522 26.2774C50.9127 25.5026 52.1151 25.0973 53.3446 25.134C54.7323 25.1842 56.0458 25.7788 57.0051 26.7911C57.9644 27.8034 58.4937 29.1534 58.4801 30.5534V43.2934C58.4801 43.7266 58.6508 44.1421 58.9546 44.4484C59.2584 44.7547 59.6705 44.9268 60.1001 44.9268H75.3285C75.7581 44.9268 76.1702 44.7547 76.474 44.4484C76.7778 44.1421 76.9485 43.7266 76.9485 43.2934V30.4358C76.9485 24.0905 74.4484 18.0051 69.9981 13.5183C65.5478 9.03144 59.5119 6.51077 53.2182 6.51077Z" fill="#BDB6F5"/>
<path d="M183.959 6.51074C177.665 6.51074 171.629 9.03141 167.179 13.5182C162.729 18.0051 160.229 24.0905 160.229 30.4358V43.2934C160.229 43.7266 160.399 44.142 160.703 44.4483C161.007 44.7547 161.419 44.9267 161.849 44.9267H177.077C177.507 44.9267 177.919 44.7547 178.222 44.4483C178.526 44.142 178.697 43.7266 178.697 43.2934V30.5893C178.697 27.7375 180.868 25.2777 183.693 25.1373C184.405 25.1019 185.117 25.2127 185.785 25.4629C186.454 25.7132 187.065 26.0977 187.581 26.5932C188.098 27.0886 188.509 27.6847 188.791 28.3452C189.072 29.0057 189.217 29.717 189.217 30.4358V43.2934C189.217 43.7266 189.388 44.142 189.692 44.4483C189.996 44.7547 190.408 44.9267 190.837 44.9267H206.066C206.495 44.9267 206.908 44.7547 207.211 44.4483C207.515 44.142 207.686 43.7266 207.686 43.2934V30.4358C207.686 24.0911 205.186 18.0061 200.737 13.5194C196.287 9.03266 190.252 6.51161 183.959 6.51074Z" fill="#BDB6F5"/>
<path d="M233.677 6.51074H218.448C217.553 6.51074 216.828 7.24201 216.828 8.14408V43.2999C216.828 44.202 217.553 44.9333 218.448 44.9333H233.677C234.571 44.9333 235.297 44.202 235.297 43.2999V8.14408C235.297 7.24201 234.571 6.51074 233.677 6.51074Z" fill="#BDB6F5"/>
<path d="M261.38 25.3333H246.45C245.555 25.3333 244.83 26.0645 244.83 26.9666V43.2999C244.83 44.202 245.555 44.9332 246.45 44.9332H261.38C262.275 44.9332 263 44.202 263 43.2999V26.9666C263 26.0645 262.275 25.3333 261.38 25.3333Z" fill="#BDB6F5"/>
<path d="M107.836 49.5C112.642 49.5 117.34 48.0631 121.336 45.371C125.333 42.6789 128.447 38.8525 130.286 34.3758C132.126 29.899 132.607 24.9728 131.669 20.2203C130.732 15.4678 128.417 11.1023 125.019 7.6759C121.62 4.24951 117.29 1.91611 112.577 0.970772C107.863 0.025434 102.977 0.510615 98.5363 2.36496C94.0959 4.21931 90.3007 7.35953 87.6305 11.3885C84.9604 15.4175 83.5352 20.1544 83.5352 25C83.5352 28.2174 84.1637 31.4033 85.3849 34.3758C86.6061 37.3482 88.3961 40.0491 90.6526 42.3241C95.2099 46.9188 101.391 49.5 107.836 49.5Z" fill="#BDB6F5"/>
<path d="M134.988 5.88989C134.293 5.89106 133.599 5.93032 132.908 6.00749C136.631 11.6305 138.617 18.2394 138.617 24.9999C138.617 31.7603 136.631 38.3693 132.908 43.9923C133.599 44.0695 134.293 44.1087 134.988 44.1099C139.847 44.1097 144.521 42.2285 148.044 38.8547C151.567 35.481 153.67 30.8722 153.92 25.9799C153.92 25.6532 153.943 25.3266 153.943 24.9999C153.943 24.6732 153.943 24.3466 153.92 24.0199C153.67 19.1276 151.567 14.5188 148.044 11.145C144.521 7.77128 139.847 5.8901 134.988 5.88989Z" fill="#BDB6F5"/>
</svg>
