<svg width="28" height="28" viewBox="0 0 28 28" fill="none" xmlns="http://www.w3.org/2000/svg">
<path d="M16.3334 14.0001C16.3334 15.2887 15.2887 16.3334 14.0001 16.3334C12.7114 16.3334 11.6667 15.2887 11.6667 14.0001C11.6667 12.7114 12.7114 11.6667 14.0001 11.6667C15.2887 11.6667 16.3334 12.7114 16.3334 14.0001Z" fill="white"/>
<path d="M23.3334 14.0001C23.3334 15.2887 22.2887 16.3334 21.0001 16.3334C19.7114 16.3334 18.6667 15.2887 18.6667 14.0001C18.6667 12.7114 19.7114 11.6667 21.0001 11.6667C22.2887 11.6667 23.3334 12.7114 23.3334 14.0001Z" fill="white"/>
<path d="M9.33342 14.0001C9.33342 15.2887 8.28875 16.3334 7.00008 16.3334C5.71142 16.3334 4.66675 15.2887 4.66675 14.0001C4.66675 12.7114 5.71142 11.6667 7.00008 11.6667C8.28875 11.6667 9.33342 12.7114 9.33342 14.0001Z" fill="white"/>
</svg>
