<svg width="100" height="101" viewBox="0 0 100 101" fill="none" xmlns="http://www.w3.org/2000/svg">
<path d="M48.947 6.54925C37.4772 6.68273 26.5026 11.2437 18.3167 19.2791C10.1308 27.3144 5.36682 38.2025 5.02031 49.668C4.6738 61.1335 8.77156 72.2894 16.4573 80.8044C24.1431 89.3195 34.8221 94.5349 46.2629 95.3608V83.5192C40.3046 83.3297 34.6532 80.8314 30.5028 76.5521C26.3525 72.2727 24.0281 66.5476 24.0209 60.5861V57.8034C24.0209 57.0182 24.3328 56.2652 24.888 55.71C25.4431 55.1549 26.1961 54.843 26.9812 54.843C27.7664 54.843 28.5193 55.1549 29.0745 55.71C29.6297 56.2652 29.9416 57.0182 29.9416 57.8034V60.5861C29.9468 65.1017 31.7429 69.4308 34.9359 72.6238C38.1288 75.8168 42.4579 77.613 46.9734 77.6182H51.4929C56.0084 77.613 60.3375 75.8168 63.5305 72.6238C66.7234 69.4308 68.5195 65.1017 68.5247 60.5861V57.8034C68.5247 57.0182 68.8366 56.2652 69.3918 55.71C69.947 55.1549 70.6999 54.843 71.4851 54.843C72.2702 54.843 73.0232 55.1549 73.5784 55.71C74.1335 56.2652 74.4454 57.0182 74.4454 57.8034V60.5861C74.4329 66.5475 72.1036 72.2705 67.9495 76.5461C63.9857 80.626 58.6566 83.0831 53 83.4597V89V92.5V95.3038C64.4737 94.6744 75.2704 89.622 83.1088 81.1905C91.1329 72.5593 95.3997 61.0941 94.9705 49.3169C94.5413 37.5398 89.4513 26.4155 80.8202 18.3913C72.1891 10.3671 60.724 6.1003 48.947 6.52951V6.54925ZM63.5908 60.5861C63.5856 63.7931 62.3093 66.8673 60.0417 69.135C57.774 71.4027 54.6999 72.679 51.4929 72.6842H46.9734C45.3847 72.6842 43.8115 72.3713 42.3437 71.7633C40.876 71.1553 39.5423 70.2642 38.4189 69.1408C37.2955 68.0174 36.4044 66.6837 35.7964 65.2159C35.1884 63.7481 34.8755 62.1749 34.8755 60.5861V38.3832C34.8755 35.1746 36.1501 32.0974 38.4189 29.8286C40.6877 27.5598 43.7649 26.2851 46.9734 26.2851H51.4929C54.6999 26.2904 57.774 27.5667 60.0417 29.8344C62.3093 32.1021 63.5856 35.1762 63.5908 38.3832V60.5861Z" fill="white"/>
</svg>
