<svg width="100" height="101" viewBox="0 0 100 101" fill="none" xmlns="http://www.w3.org/2000/svg">
<path d="M79.2172 19.7H67.7505V17.8C67.7 17.1915 67.4227 16.6243 66.9735 16.2108C66.5243 15.7974 65.9361 15.5678 65.3255 15.5678C64.715 15.5678 64.1268 15.7974 63.6776 16.2108C63.2284 16.6243 62.951 17.1915 62.9005 17.8V19.7H36.6672V17.8C36.6672 17.159 36.4126 16.5443 35.9594 16.0911C35.5061 15.6379 34.8915 15.3833 34.2505 15.3833C33.6096 15.3833 32.9949 15.6379 32.5417 16.0911C32.0885 16.5443 31.8339 17.159 31.8339 17.8V19.7H20.5839C18.8688 19.7 17.224 20.3813 16.0112 21.594C14.7985 22.8067 14.1172 24.4516 14.1172 26.1666V36.4833H85.6839V26.1666C85.6839 24.4516 85.0025 22.8067 83.7898 21.594C82.5771 20.3813 80.9323 19.7 79.2172 19.7Z" fill="white"/>
<path d="M14.1172 41.3333V80.3832C14.1216 82.0954 14.8049 83.736 16.0171 84.9451C17.2294 86.1542 18.8717 86.8332 20.5839 86.8332H60.2839C57.3949 83.0794 55.8331 78.4731 55.8431 73.7362C55.8531 68.9994 57.4345 64.3998 60.3393 60.6582C63.2442 56.9166 67.3083 54.2445 71.8948 53.0607C76.4814 51.8769 81.3311 52.2482 85.6839 54.1166V41.3333H14.1172ZM34.7005 74.4832H22.6672V66.0499H34.7005V74.4832ZM34.7005 61.5999H22.6672V53.1499H34.7005V61.5999ZM51.3672 74.4832H39.3005V66.0499H51.3339L51.3672 74.4832ZM51.3672 61.5999H39.3005V53.1499H51.3339L51.3672 61.5999Z" fill="white"/>
<path d="M77.2511 57.1666C73.9748 57.1667 70.7719 58.1372 68.0466 59.9557C65.3213 61.7743 63.1958 64.3593 61.9382 67.3847C60.6807 70.41 60.3474 73.7401 60.9806 76.9547C61.6137 80.1692 63.1849 83.1242 65.4958 85.4467C67.8067 87.7692 70.7537 89.3552 73.9651 90.0044C77.1764 90.6537 80.5081 90.3371 83.5397 89.0948C86.5714 87.8524 89.167 85.7398 90.9992 83.0237C92.8314 80.3076 93.818 77.1096 93.8344 73.8333C93.8454 71.6485 93.4246 69.4831 92.5961 67.4615C91.7676 65.4399 90.5478 63.6019 89.0068 62.0532C87.4658 60.5045 85.634 59.2755 83.6166 58.4369C81.5991 57.5983 79.4359 57.1666 77.2511 57.1666ZM87.7344 71.6L78.3344 81.0333C78.1112 81.2596 77.8452 81.4392 77.5519 81.5618C77.2587 81.6844 76.944 81.7476 76.6261 81.7476C76.3082 81.7476 75.9935 81.6844 75.7003 81.5618C75.407 81.4392 75.141 81.2596 74.9178 81.0333L67.8511 73.9833C67.6243 73.7586 67.4443 73.4912 67.3215 73.1966C67.1987 72.9019 67.1354 72.5859 67.1354 72.2666C67.1354 71.9474 67.1987 71.6313 67.3215 71.3367C67.4443 71.042 67.6243 70.7746 67.8511 70.55C68.3092 70.1 68.9257 69.848 69.5678 69.848C70.2099 69.848 70.8263 70.1 71.2844 70.55L76.6678 75.9L84.3344 68.25C84.5431 67.9697 84.8101 67.738 85.1171 67.5708C85.424 67.4037 85.7635 67.3051 86.1122 67.2819C86.4609 67.2587 86.8105 67.3113 87.1368 67.4363C87.4632 67.5612 87.7586 67.7555 88.0026 68.0056C88.2467 68.2557 88.4335 68.5558 88.5504 68.8852C88.6672 69.2145 88.7113 69.5653 88.6794 69.9133C88.6476 70.2613 88.5407 70.5983 88.366 70.901C88.1914 71.2037 87.9531 71.4649 87.6678 71.6666L87.7344 71.6Z" fill="white"/>
</svg>
