<svg width="182" height="30" viewBox="0 0 182 30" fill="none" xmlns="http://www.w3.org/2000/svg">
<path fill-rule="evenodd" clip-rule="evenodd" d="M15 1.25C15.4758 1.25 15.9103 1.52009 16.1209 1.94672L19.6929 9.18308L27.6808 10.3506C28.1515 10.4194 28.5424 10.7495 28.6891 11.202C28.8358 11.6545 28.713 12.151 28.3722 12.4829L22.5932 18.1117L23.957 26.0637C24.0375 26.5327 23.8447 27.0067 23.4597 27.2863C23.0747 27.566 22.5644 27.6028 22.1432 27.3813L15 23.6248L7.85685 27.3813C7.43571 27.6028 6.92534 27.566 6.54037 27.2863C6.1554 27.0067 5.96259 26.5327 6.04303 26.0637L7.40688 18.1117L1.62787 12.4829C1.2871 12.151 1.16426 11.6545 1.31098 11.202C1.4577 10.7495 1.84855 10.4194 2.31925 10.3506L10.3072 9.18308L13.8792 1.94672C14.0897 1.52009 14.5243 1.25 15 1.25ZM15 5.32407L12.2584 10.8783C12.0765 11.2468 11.725 11.5024 11.3183 11.5619L5.18555 12.4583L9.6222 16.7796C9.91704 17.0667 10.0516 17.4806 9.98205 17.8863L8.93526 23.9896L14.4182 21.1062C14.7825 20.9146 15.2176 20.9146 15.5819 21.1062L21.0648 23.9896L20.018 17.8863C19.9485 17.4806 20.083 17.0667 20.3779 16.7796L24.8145 12.4583L18.6818 11.5619C18.2751 11.5024 17.9236 11.2468 17.7417 10.8783L15 5.32407Z" fill="#FFDD28"/>
<path d="M12.2584 10.8783L15 5.32407L17.7417 10.8783C17.9236 11.2468 18.2751 11.5024 18.6818 11.5619L24.8145 12.4583L20.3779 16.7796C20.083 17.0667 19.9485 17.4806 20.018 17.8863L21.0648 23.9896L15.5819 21.1062C15.2176 20.9146 14.7825 20.9146 14.4182 21.1062L8.93526 23.9896L9.98205 17.8863C10.0516 17.4806 9.91704 17.0667 9.6222 16.7796L5.18555 12.4583L11.3183 11.5619C11.725 11.5024 12.0765 11.2468 12.2584 10.8783Z" fill="#FFDD28"/>
<path fill-rule="evenodd" clip-rule="evenodd" d="M53 1.25C53.4758 1.25 53.9103 1.52009 54.1209 1.94672L57.6929 9.18308L65.6808 10.3506C66.1515 10.4194 66.5424 10.7495 66.6891 11.202C66.8358 11.6545 66.713 12.151 66.3722 12.4829L60.5932 18.1117L61.957 26.0637C62.0375 26.5327 61.8447 27.0067 61.4597 27.2863C61.0747 27.566 60.5644 27.6028 60.1432 27.3813L53 23.6248L45.8569 27.3813C45.4357 27.6028 44.9253 27.566 44.5404 27.2863C44.1554 27.0067 43.9626 26.5327 44.043 26.0637L45.4069 18.1117L39.6279 12.4829C39.2871 12.151 39.1643 11.6545 39.311 11.202C39.4577 10.7495 39.8486 10.4194 40.3193 10.3506L48.3072 9.18308L51.8792 1.94672C52.0897 1.52009 52.5243 1.25 53 1.25ZM53 5.32407L50.2584 10.8783C50.0765 11.2468 49.725 11.5024 49.3183 11.5619L43.1856 12.4583L47.6222 16.7796C47.917 17.0667 48.0516 17.4806 47.982 17.8863L46.9353 23.9896L52.4182 21.1062C52.7825 20.9146 53.2176 20.9146 53.5819 21.1062L59.0648 23.9896L58.018 17.8863C57.9485 17.4806 58.083 17.0667 58.3779 16.7796L62.8145 12.4583L56.6818 11.5619C56.2751 11.5024 55.9236 11.2468 55.7417 10.8783L53 5.32407Z" fill="#FFDD28"/>
<path d="M50.2584 10.8783L53 5.32407L55.7417 10.8783C55.9236 11.2468 56.2751 11.5024 56.6818 11.5619L62.8145 12.4583L58.3779 16.7796C58.083 17.0667 57.9485 17.4806 58.018 17.8863L59.0648 23.9896L53.5819 21.1062C53.2176 20.9146 52.7825 20.9146 52.4182 21.1062L46.9353 23.9896L47.982 17.8863C48.0516 17.4806 47.917 17.0667 47.6222 16.7796L43.1856 12.4583L49.3183 11.5619C49.725 11.5024 50.0765 11.2468 50.2584 10.8783Z" fill="#FFDD28"/>
<path fill-rule="evenodd" clip-rule="evenodd" d="M91 1.25C91.4758 1.25 91.9103 1.52009 92.1209 1.94672L95.6929 9.18308L103.681 10.3506C104.152 10.4194 104.542 10.7495 104.689 11.202C104.836 11.6545 104.713 12.151 104.372 12.4829L98.5932 18.1117L99.957 26.0637C100.037 26.5327 99.8447 27.0067 99.4597 27.2863C99.0747 27.566 98.5644 27.6028 98.1432 27.3813L91 23.6248L83.8569 27.3813C83.4357 27.6028 82.9253 27.566 82.5404 27.2863C82.1554 27.0067 81.9626 26.5327 82.043 26.0637L83.4069 18.1117L77.6279 12.4829C77.2871 12.151 77.1643 11.6545 77.311 11.202C77.4577 10.7495 77.8486 10.4194 78.3193 10.3506L86.3072 9.18308L89.8792 1.94672C90.0897 1.52009 90.5243 1.25 91 1.25ZM91 5.32407L88.2584 10.8783C88.0765 11.2468 87.725 11.5024 87.3183 11.5619L81.1856 12.4583L85.6222 16.7796C85.917 17.0667 86.0516 17.4806 85.982 17.8863L84.9353 23.9896L90.4182 21.1062C90.7825 20.9146 91.2176 20.9146 91.5819 21.1062L97.0648 23.9896L96.018 17.8863C95.9485 17.4806 96.083 17.0667 96.3779 16.7796L100.815 12.4583L94.6818 11.5619C94.2751 11.5024 93.9236 11.2468 93.7417 10.8783L91 5.32407Z" fill="#D9D9D9"/>
<path d="M88.2584 10.8783L91 5.32407L93.7417 10.8783C93.9236 11.2468 94.2751 11.5024 94.6818 11.5619L100.815 12.4583L96.3779 16.7796C96.083 17.0667 95.9485 17.4806 96.018 17.8863L97.0648 23.9896L91.5819 21.1062C91.2176 20.9146 90.7825 20.9146 90.4182 21.1062L84.9353 23.9896L85.982 17.8863C86.0516 17.4806 85.917 17.0667 85.6222 16.7796L81.1856 12.4583L87.3183 11.5619C87.725 11.5024 88.0765 11.2468 88.2584 10.8783Z" fill="#D9D9D9"/>
<path fill-rule="evenodd" clip-rule="evenodd" d="M129 1.25C129.476 1.25 129.91 1.52009 130.121 1.94672L133.693 9.18308L141.681 10.3506C142.152 10.4194 142.542 10.7495 142.689 11.202C142.836 11.6545 142.713 12.151 142.372 12.4829L136.593 18.1117L137.957 26.0637C138.037 26.5327 137.845 27.0067 137.46 27.2863C137.075 27.566 136.564 27.6028 136.143 27.3813L129 23.6248L121.857 27.3813C121.436 27.6028 120.925 27.566 120.54 27.2863C120.155 27.0067 119.963 26.5327 120.043 26.0637L121.407 18.1117L115.628 12.4829C115.287 12.151 115.164 11.6545 115.311 11.202C115.458 10.7495 115.849 10.4194 116.319 10.3506L124.307 9.18308L127.879 1.94672C128.09 1.52009 128.524 1.25 129 1.25ZM129 5.32407L126.258 10.8783C126.076 11.2468 125.725 11.5024 125.318 11.5619L119.186 12.4583L123.622 16.7796C123.917 17.0667 124.052 17.4806 123.982 17.8863L122.935 23.9896L128.418 21.1062C128.782 20.9146 129.218 20.9146 129.582 21.1062L135.065 23.9896L134.018 17.8863C133.948 17.4806 134.083 17.0667 134.378 16.7796L138.815 12.4583L132.682 11.5619C132.275 11.5024 131.924 11.2468 131.742 10.8783L129 5.32407Z" fill="#D9D9D9"/>
<path d="M126.258 10.8783L129 5.32407L131.742 10.8783C131.924 11.2468 132.275 11.5024 132.682 11.5619L138.815 12.4583L134.378 16.7796C134.083 17.0667 133.948 17.4806 134.018 17.8863L135.065 23.9896L129.582 21.1062C129.218 20.9146 128.782 20.9146 128.418 21.1062L122.935 23.9896L123.982 17.8863C124.052 17.4806 123.917 17.0667 123.622 16.7796L119.186 12.4583L125.318 11.5619C125.725 11.5024 126.076 11.2468 126.258 10.8783Z" fill="#D9D9D9"/>
<path fill-rule="evenodd" clip-rule="evenodd" d="M167 1.25C167.476 1.25 167.91 1.52009 168.121 1.94672L171.693 9.18308L179.681 10.3506C180.152 10.4194 180.542 10.7495 180.689 11.202C180.836 11.6545 180.713 12.151 180.372 12.4829L174.593 18.1117L175.957 26.0637C176.037 26.5327 175.845 27.0067 175.46 27.2863C175.075 27.566 174.564 27.6028 174.143 27.3813L167 23.6248L159.857 27.3813C159.436 27.6028 158.925 27.566 158.54 27.2863C158.155 27.0067 157.963 26.5327 158.043 26.0637L159.407 18.1117L153.628 12.4829C153.287 12.151 153.164 11.6545 153.311 11.202C153.458 10.7495 153.849 10.4194 154.319 10.3506L162.307 9.18308L165.879 1.94672C166.09 1.52009 166.524 1.25 167 1.25ZM167 5.32407L164.258 10.8783C164.076 11.2468 163.725 11.5024 163.318 11.5619L157.186 12.4583L161.622 16.7796C161.917 17.0667 162.052 17.4806 161.982 17.8863L160.935 23.9896L166.418 21.1062C166.782 20.9146 167.218 20.9146 167.582 21.1062L173.065 23.9896L172.018 17.8863C171.948 17.4806 172.083 17.0667 172.378 16.7796L176.815 12.4583L170.682 11.5619C170.275 11.5024 169.924 11.2468 169.742 10.8783L167 5.32407Z" fill="#D9D9D9"/>
<path d="M164.258 10.8783L167 5.32407L169.742 10.8783C169.924 11.2468 170.275 11.5024 170.682 11.5619L176.815 12.4583L172.378 16.7796C172.083 17.0667 171.948 17.4806 172.018 17.8863L173.065 23.9896L167.582 21.1062C167.218 20.9146 166.782 20.9146 166.418 21.1062L160.935 23.9896L161.982 17.8863C162.052 17.4806 161.917 17.0667 161.622 16.7796L157.186 12.4583L163.318 11.5619C163.725 11.5024 164.076 11.2468 164.258 10.8783Z" fill="#D9D9D9"/>
</svg>
