<svg width="379" height="84" viewBox="0 0 379 84" fill="none" xmlns="http://www.w3.org/2000/svg">
<path d="M378.328 5.01678C378.475 4.20151 377.933 3.4214 377.118 3.27435L363.832 0.877979C363.017 0.730926 362.237 1.27262 362.09 2.0879C361.943 2.90317 362.484 3.68328 363.3 3.83034L375.109 5.96044L372.979 17.7699C372.832 18.5851 373.374 19.3653 374.189 19.5123C375.004 19.6594 375.784 19.1177 375.931 18.3024L378.328 5.01678ZM0.261863 4.71482C0.0831703 12.2456 5.0865 18.7158 13.0006 24.0238C20.9487 29.3548 32.1445 33.741 45.1191 37.0715C71.0859 43.7371 104.571 46.2728 134.501 43.4195L134.216 40.433C104.607 43.2557 71.4726 40.7391 45.865 34.1657C33.0523 30.8767 22.2223 26.5967 14.6716 21.5323C7.0869 16.4451 3.11853 10.791 3.26102 4.78599L0.261863 4.71482ZM134.501 43.4195C163.886 40.6181 192.961 50.51 210.326 61.094C214.658 63.7344 218.227 66.3972 220.873 68.8869C223.549 71.4046 225.166 73.6371 225.776 75.3957C226.074 76.2551 226.104 76.9201 225.982 77.4258C225.866 77.9082 225.584 78.3723 225.008 78.8066C223.771 79.7397 221.273 80.457 216.983 80.457L216.983 83.457C221.432 83.457 224.767 82.7459 226.814 81.2016C227.881 80.3972 228.603 79.3603 228.899 78.1269C229.19 76.9167 229.04 75.651 228.61 74.4123C227.764 71.9746 225.734 69.3409 222.929 66.7019C220.094 64.0349 216.347 61.2505 211.887 58.5323C194.085 47.6819 164.369 37.5584 134.216 40.433L134.501 43.4195ZM216.983 80.457C208.414 80.457 203.638 78.2228 201.534 75.2425C199.472 72.3221 199.583 68.094 202.231 63.0801C207.523 53.0573 222.342 41.3167 243.378 35.6579L242.598 32.7609C221.043 38.5593 205.38 50.6924 199.578 61.6792C196.678 67.17 196.089 72.7306 199.083 76.9726C202.035 81.1548 208.072 83.457 216.983 83.457L216.983 80.457ZM243.378 35.6579C253.824 32.8477 263.084 32.5344 272.215 32.9321C281.245 33.3255 290.495 34.4511 300.313 34.4451C320.263 34.4328 343.376 29.8217 377.707 5.98262L375.996 3.51843C342.117 27.0435 319.593 31.4333 300.311 31.4451C290.514 31.4511 281.749 30.3446 272.345 29.935C263.041 29.5297 253.447 29.8425 242.598 32.7609L243.378 35.6579Z" fill="white"/>
</svg>
