<svg width="260" height="101" viewBox="0 0 260 101" fill="none" xmlns="http://www.w3.org/2000/svg">
<path fill-rule="evenodd" clip-rule="evenodd" d="M22.2135 1.93353C22.3734 1.12068 21.8328 0.418707 21.0061 0.365617C20.1794 0.312527 19.3795 0.928428 19.2196 1.74127L16.0324 17.9403C15.8725 18.7532 16.413 19.4551 17.2398 19.5082C18.0665 19.5613 18.8663 18.9454 19.0262 18.1326L22.2135 1.93353ZM15.839 34.3316C15.999 33.5188 15.4584 32.8168 14.6317 32.7637C13.805 32.7106 13.0051 33.3265 12.8452 34.1394L6.4708 66.5374C6.31087 67.3503 6.85142 68.0523 7.67814 68.1054C8.50487 68.1584 9.30471 67.5425 9.46464 66.7297L15.839 34.3316ZM6.27743 82.9287C6.43736 82.1159 5.89682 81.4139 5.07009 81.3608C4.24337 81.3077 3.44353 81.9236 3.2836 82.7365L0.0963951 98.9355C-0.0635345 99.7484 0.47701 100.45 1.30373 100.503C2.13046 100.557 2.9303 99.9406 3.09023 99.1278L6.27743 82.9287ZM34.7232 1.93353C34.8831 1.12068 34.3426 0.418707 33.5159 0.365617C32.6892 0.312527 31.8893 0.928428 31.7294 1.74127L28.5422 17.9403C28.3823 18.7532 28.9228 19.4551 29.7495 19.5082C30.5762 19.5613 31.3761 18.9454 31.536 18.1326L34.7232 1.93353ZM28.3488 34.3316C28.5087 33.5188 27.9682 32.8168 27.1415 32.7637C26.3147 32.7106 25.5149 33.3265 25.355 34.1394L18.9806 66.5374C18.8206 67.3503 19.3612 68.0523 20.1879 68.1054C21.0146 68.1584 21.8145 67.5425 21.9744 66.7297L28.3488 34.3316ZM18.7872 82.9287C18.9471 82.1159 18.4066 81.4139 17.5799 81.3608C16.7531 81.3077 15.9533 81.9236 15.7934 82.7365L12.6062 98.9355C12.4462 99.7484 12.9868 100.45 13.8135 100.503C14.6402 100.557 15.4401 99.9406 15.6 99.1278L18.7872 82.9287ZM46.0256 0.365617C46.8524 0.418707 47.3929 1.12068 47.233 1.93353L44.0458 18.1326C43.8859 18.9454 43.086 19.5613 42.2593 19.5082C41.4326 19.4551 40.892 18.7532 41.0519 17.9403L44.2392 1.74127C44.3991 0.928428 45.1989 0.312527 46.0256 0.365617ZM39.6512 32.7637C40.478 32.8168 41.0185 33.5188 40.8586 34.3316L34.4842 66.7297C34.3242 67.5425 33.5244 68.1584 32.6977 68.1054C31.8709 68.0523 31.3304 67.3503 31.4903 66.5374L37.8647 34.1394C38.0247 33.3265 38.8245 32.7106 39.6512 32.7637ZM30.0896 81.3608C30.9163 81.4139 31.4569 82.1159 31.297 82.9287L28.1098 99.1278C27.9498 99.9406 27.15 100.557 26.3233 100.503C25.4965 100.45 24.956 99.7484 25.1159 98.9355L28.3031 82.7365C28.4631 81.9236 29.2629 81.3077 30.0896 81.3608ZM59.7428 1.93353C59.9027 1.12068 59.3621 0.418707 58.5354 0.365617C57.7087 0.312527 56.9088 0.928428 56.7489 1.74127L53.5617 17.9403C53.4018 18.7532 53.9423 19.4551 54.7691 19.5082C55.5958 19.5613 56.3956 18.9454 56.5555 18.1326L59.7428 1.93353ZM53.3683 34.3316C53.5283 33.5188 52.9877 32.8168 52.161 32.7637C51.3343 32.7106 50.5344 33.3265 50.3745 34.1394L44.0001 66.5374C43.8402 67.3503 44.3807 68.0523 45.2074 68.1054C46.0342 68.1584 46.834 67.5425 46.9939 66.7297L53.3683 34.3316ZM43.8067 82.9287C43.9667 82.1159 43.4261 81.4139 42.5994 81.3608C41.7727 81.3077 40.9728 81.9236 40.8129 82.7365L37.6257 98.9355C37.4658 99.7484 38.0063 100.45 38.833 100.503C39.6598 100.557 40.4596 99.9406 40.6195 99.1278L43.8067 82.9287ZM71.0452 0.365617C71.8719 0.418707 72.4124 1.12068 72.2525 1.93353L69.0653 18.1326C68.9054 18.9454 68.1055 19.5613 67.2788 19.5082C66.4521 19.4551 65.9116 18.7532 66.0715 17.9403L69.2587 1.74127C69.4186 0.928428 70.2185 0.312527 71.0452 0.365617ZM64.6708 32.7637C65.4975 32.8168 66.038 33.5188 65.8781 34.3316L59.5037 66.7297C59.3438 67.5425 58.5439 68.1584 57.7172 68.1054C56.8905 68.0523 56.3499 67.3503 56.5099 66.5374L62.8843 34.1394C63.0442 33.3265 63.844 32.7106 64.6708 32.7637ZM55.1092 81.3608C55.9359 81.4139 56.4764 82.1159 56.3165 82.9287L53.1293 99.1278C52.9694 99.9406 52.1695 100.557 51.3428 100.503C50.5161 100.45 49.9755 99.7484 50.1355 98.9355L53.3227 82.7365C53.4826 81.9236 54.2824 81.3077 55.1092 81.3608ZM84.7623 1.93353C84.9222 1.12068 84.3817 0.418707 83.5549 0.365617C82.7282 0.312527 81.9284 0.928428 81.7684 1.74127L78.5812 17.9403C78.4213 18.7532 78.9619 19.4551 79.7886 19.5082C80.6153 19.5613 81.4151 18.9454 81.5751 18.1326L84.7623 1.93353ZM78.3879 34.3316C78.5478 33.5188 78.0073 32.8168 77.1805 32.7637C76.3538 32.7106 75.554 33.3265 75.394 34.1394L69.0196 66.5374C68.8597 67.3503 69.4002 68.0523 70.227 68.1054C71.0537 68.1584 71.8535 67.5425 72.0135 66.7297L78.3879 34.3316ZM68.8263 82.9287C68.9862 82.1159 68.4456 81.4139 67.6189 81.3608C66.7922 81.3077 65.9924 81.9236 65.8324 82.7365L62.6452 98.9355C62.4853 99.7484 63.0258 100.45 63.8526 100.503C64.6793 100.557 65.4791 99.9406 65.6391 99.1278L68.8263 82.9287ZM96.0667 0.365617C96.8934 0.418707 97.4339 1.12068 97.274 1.93353L94.0868 18.1326C93.9269 18.9454 93.127 19.5613 92.3003 19.5082C91.4736 19.4551 90.933 18.7532 91.093 17.9403L94.2802 1.74127C94.4401 0.928428 95.2399 0.312527 96.0667 0.365617ZM89.6923 32.7637C90.519 32.8168 91.0595 33.5188 90.8996 34.3316L84.5252 66.7297C84.3652 67.5425 83.5654 68.1584 82.7387 68.1054C81.912 68.0523 81.3714 67.3503 81.5313 66.5374L87.9058 34.1394C88.0657 33.3265 88.8655 32.7106 89.6923 32.7637ZM80.1306 81.3608C80.9574 81.4139 81.4979 82.1159 81.338 82.9287L78.1508 99.1278C77.9908 99.9406 77.191 100.557 76.3643 100.503C75.5376 100.45 74.997 99.7484 75.1569 98.9355L78.3441 82.7365C78.5041 81.9236 79.3039 81.3077 80.1306 81.3608ZM109.784 1.93353C109.944 1.12068 109.403 0.418707 108.576 0.365617C107.75 0.312527 106.95 0.928428 106.79 1.74127L103.603 17.9403C103.443 18.7532 103.983 19.4551 104.81 19.5082C105.637 19.5613 106.437 18.9454 106.597 18.1326L109.784 1.93353ZM103.409 34.3316C103.569 33.5188 103.029 32.8168 102.202 32.7637C101.375 32.7106 100.575 33.3265 100.416 34.1394L94.0411 66.5374C93.8812 67.3503 94.4217 68.0523 95.2485 68.1054C96.0752 68.1584 96.875 67.5425 97.035 66.7297L103.409 34.3316ZM93.8477 82.9287C94.0077 82.1159 93.4671 81.4139 92.6404 81.3608C91.8137 81.3077 91.0138 81.9236 90.8539 82.7365L87.6667 98.9355C87.5068 99.7484 88.0473 100.45 88.874 100.503C89.7008 100.557 90.5006 99.9406 90.6605 99.1278L93.8477 82.9287ZM121.086 0.365617C121.913 0.418707 122.453 1.12068 122.294 1.93353L119.106 18.1326C118.946 18.9454 118.147 19.5613 117.32 19.5082C116.493 19.4551 115.953 18.7532 116.112 17.9403L119.3 1.74127C119.46 0.928428 120.259 0.312527 121.086 0.365617ZM114.712 32.7637C115.539 32.8168 116.079 33.5188 115.919 34.3316L109.545 66.7297C109.385 67.5425 108.585 68.1584 107.758 68.1054C106.931 68.0523 106.391 67.3503 106.551 66.5374L112.925 34.1394C113.085 33.3265 113.885 32.7106 114.712 32.7637ZM105.15 81.3608C105.977 81.4139 106.517 82.1159 106.358 82.9287L103.17 99.1278C103.01 99.9406 102.211 100.557 101.384 100.503C100.557 100.45 100.017 99.7484 100.176 98.9355L103.364 82.7365C103.524 81.9236 104.323 81.3077 105.15 81.3608ZM134.803 1.93353C134.963 1.12068 134.423 0.418707 133.596 0.365617C132.769 0.312527 131.969 0.928428 131.809 1.74127L128.622 17.9403C128.462 18.7532 129.003 19.4551 129.83 19.5082C130.656 19.5613 131.456 18.9454 131.616 18.1326L134.803 1.93353ZM128.429 34.3316C128.589 33.5188 128.048 32.8168 127.222 32.7637C126.395 32.7106 125.595 33.3265 125.435 34.1394L119.061 66.5374C118.901 67.3503 119.441 68.0523 120.268 68.1054C121.095 68.1584 121.895 67.5425 122.054 66.7297L128.429 34.3316ZM118.867 82.9287C119.027 82.1159 118.487 81.4139 117.66 81.3608C116.833 81.3077 116.033 81.9236 115.873 82.7365L112.686 98.9355C112.526 99.7484 113.067 100.45 113.894 100.503C114.72 100.557 115.52 99.9406 115.68 99.1278L118.867 82.9287ZM146.106 0.365617C146.932 0.418707 147.473 1.12068 147.313 1.93353L144.126 18.1326C143.966 18.9454 143.166 19.5613 142.339 19.5082C141.513 19.4551 140.972 18.7532 141.132 17.9403L144.319 1.74127C144.479 0.928428 145.279 0.312527 146.106 0.365617ZM139.731 32.7637C140.558 32.8168 141.099 33.5188 140.939 34.3316L134.564 66.7297C134.404 67.5425 133.604 68.1584 132.778 68.1054C131.951 68.0523 131.41 67.3503 131.57 66.5374L137.945 34.1394C138.105 33.3265 138.905 32.7106 139.731 32.7637ZM130.17 81.3608C130.996 81.4139 131.537 82.1159 131.377 82.9287L128.19 99.1278C128.03 99.9406 127.23 100.557 126.403 100.503C125.577 100.45 125.036 99.7484 125.196 98.9355L128.383 82.7365C128.543 81.9236 129.343 81.3077 130.17 81.3608ZM159.823 1.93353C159.983 1.12068 159.442 0.418707 158.615 0.365617C157.789 0.312527 156.989 0.928428 156.829 1.74127L153.642 17.9403C153.482 18.7532 154.022 19.4551 154.849 19.5082C155.676 19.5613 156.476 18.9454 156.636 18.1326L159.823 1.93353ZM153.448 34.3316C153.608 33.5188 153.068 32.8168 152.241 32.7637C151.414 32.7106 150.615 33.3265 150.455 34.1394L144.08 66.5374C143.92 67.3503 144.461 68.0523 145.288 68.1054C146.114 68.1584 146.914 67.5425 147.074 66.7297L153.448 34.3316ZM143.887 82.9287C144.047 82.1159 143.506 81.4139 142.679 81.3608C141.853 81.3077 141.053 81.9236 140.893 82.7365L137.706 98.9355C137.546 99.7484 138.086 100.45 138.913 100.503C139.74 100.557 140.54 99.9406 140.7 99.1278L143.887 82.9287ZM171.125 0.365617C171.952 0.418707 172.493 1.12068 172.333 1.93353L169.145 18.1326C168.985 18.9454 168.186 19.5613 167.359 19.5082C166.532 19.4551 165.992 18.7532 166.152 17.9403L169.339 1.74127C169.499 0.928428 170.299 0.312527 171.125 0.365617ZM164.751 32.7637C165.578 32.8168 166.118 33.5188 165.958 34.3316L159.584 66.7297C159.424 67.5425 158.624 68.1584 157.797 68.1054C156.971 68.0523 156.43 67.3503 156.59 66.5374L162.964 34.1394C163.124 33.3265 163.924 32.7106 164.751 32.7637ZM155.189 81.3608C156.016 81.4139 156.557 82.1159 156.397 82.9287L153.209 99.1278C153.049 99.9406 152.25 100.557 151.423 100.503C150.596 100.45 150.056 99.7484 150.216 98.9355L153.403 82.7365C153.563 81.9236 154.363 81.3077 155.189 81.3608ZM184.842 1.93353C185.002 1.12068 184.462 0.418707 183.635 0.365617C182.808 0.312527 182.008 0.928428 181.849 1.74127L178.661 17.9403C178.501 18.7532 179.042 19.4551 179.869 19.5082C180.695 19.5613 181.495 18.9454 181.655 18.1326L184.842 1.93353ZM178.468 34.3316C178.628 33.5188 178.087 32.8168 177.261 32.7637C176.434 32.7106 175.634 33.3265 175.474 34.1394L169.1 66.5374C168.94 67.3503 169.48 68.0523 170.307 68.1054C171.134 68.1584 171.934 67.5425 172.094 66.7297L178.468 34.3316ZM168.906 82.9287C169.066 82.1159 168.526 81.4139 167.699 81.3608C166.872 81.3077 166.072 81.9236 165.913 82.7365L162.725 98.9355C162.565 99.7484 163.106 100.45 163.933 100.503C164.759 100.557 165.559 99.9406 165.719 99.1278L168.906 82.9287ZM196.147 0.365617C196.973 0.418707 197.514 1.12068 197.354 1.93353L194.167 18.1326C194.007 18.9454 193.207 19.5613 192.38 19.5082C191.554 19.4551 191.013 18.7532 191.173 17.9403L194.36 1.74127C194.52 0.928428 195.32 0.312527 196.147 0.365617ZM189.772 32.7637C190.599 32.8168 191.14 33.5188 190.98 34.3316L184.605 66.7297C184.445 67.5425 183.645 68.1584 182.819 68.1054C181.992 68.0523 181.451 67.3503 181.611 66.5374L187.986 34.1394C188.146 33.3265 188.946 32.7106 189.772 32.7637ZM180.211 81.3608C181.037 81.4139 181.578 82.1159 181.418 82.9287L178.231 99.1278C178.071 99.9406 177.271 100.557 176.444 100.503C175.618 100.45 175.077 99.7484 175.237 98.9355L178.424 82.7365C178.584 81.9236 179.384 81.3077 180.211 81.3608ZM209.864 1.93353C210.024 1.12068 209.483 0.418707 208.657 0.365617C207.83 0.312527 207.03 0.928428 206.87 1.74127L203.683 17.9403C203.523 18.7532 204.063 19.4551 204.89 19.5082C205.717 19.5613 206.517 18.9454 206.677 18.1326L209.864 1.93353ZM203.489 34.3316C203.649 33.5188 203.109 32.8168 202.282 32.7637C201.455 32.7106 200.656 33.3265 200.496 34.1394L194.121 66.5374C193.961 67.3503 194.502 68.0523 195.329 68.1054C196.155 68.1584 196.955 67.5425 197.115 66.7297L203.489 34.3316ZM193.928 82.9287C194.088 82.1159 193.547 81.4139 192.72 81.3608C191.894 81.3077 191.094 81.9236 190.934 82.7365L187.747 98.9355C187.587 99.7484 188.127 100.45 188.954 100.503C189.781 100.557 190.581 99.9406 190.741 99.1278L193.928 82.9287ZM221.166 0.365617C221.993 0.418707 222.534 1.12068 222.374 1.93353L219.186 18.1326C219.026 18.9454 218.227 19.5613 217.4 19.5082C216.573 19.4551 216.033 18.7532 216.193 17.9403L219.38 1.74127C219.54 0.928428 220.34 0.312527 221.166 0.365617ZM214.792 32.7637C215.619 32.8168 216.159 33.5188 215.999 34.3316L209.625 66.7297C209.465 67.5425 208.665 68.1584 207.838 68.1054C207.012 68.0523 206.471 67.3503 206.631 66.5374L213.005 34.1394C213.165 33.3265 213.965 32.7106 214.792 32.7637ZM205.23 81.3608C206.057 81.4139 206.598 82.1159 206.438 82.9287L203.25 99.1278C203.09 99.9406 202.291 100.557 201.464 100.503C200.637 100.45 200.097 99.7484 200.257 98.9355L203.444 82.7365C203.604 81.9236 204.404 81.3077 205.23 81.3608ZM234.883 1.93353C235.043 1.12068 234.503 0.418707 233.676 0.365617C232.849 0.312527 232.049 0.928428 231.89 1.74127L228.702 17.9403C228.542 18.7532 229.083 19.4551 229.91 19.5082C230.736 19.5613 231.536 18.9454 231.696 18.1326L234.883 1.93353ZM228.509 34.3316C228.669 33.5188 228.128 32.8168 227.302 32.7637C226.475 32.7106 225.675 33.3265 225.515 34.1394L219.141 66.5374C218.981 67.3503 219.521 68.0523 220.348 68.1054C221.175 68.1584 221.975 67.5425 222.135 66.7297L228.509 34.3316ZM218.947 82.9287C219.107 82.1159 218.567 81.4139 217.74 81.3608C216.913 81.3077 216.113 81.9236 215.954 82.7365L212.766 98.9355C212.606 99.7484 213.147 100.45 213.974 100.503C214.8 100.557 215.6 99.9406 215.76 99.1278L218.947 82.9287ZM246.186 0.365617C247.013 0.418707 247.553 1.12068 247.393 1.93353L244.206 18.1326C244.046 18.9454 243.246 19.5613 242.419 19.5082C241.593 19.4551 241.052 18.7532 241.212 17.9403L244.399 1.74127C244.559 0.928428 245.359 0.312527 246.186 0.365617ZM239.811 32.7637C240.638 32.8168 241.179 33.5188 241.019 34.3316L234.644 66.7297C234.484 67.5425 233.685 68.1584 232.858 68.1054C232.031 68.0523 231.491 67.3503 231.65 66.5374L238.025 34.1394C238.185 33.3265 238.985 32.7106 239.811 32.7637ZM230.25 81.3608C231.077 81.4139 231.617 82.1159 231.457 82.9287L228.27 99.1278C228.11 99.9406 227.31 100.557 226.483 100.503C225.657 100.45 225.116 99.7484 225.276 98.9355L228.463 82.7365C228.623 81.9236 229.423 81.3077 230.25 81.3608ZM259.903 1.93353C260.063 1.12068 259.522 0.418707 258.696 0.365617C257.869 0.312527 257.069 0.928428 256.909 1.74127L253.722 17.9403C253.562 18.7532 254.102 19.4551 254.929 19.5082C255.756 19.5613 256.556 18.9454 256.716 18.1326L259.903 1.93353ZM253.529 34.3316C253.688 33.5188 253.148 32.8168 252.321 32.7637C251.494 32.7106 250.695 33.3265 250.535 34.1394L244.16 66.5374C244 67.3503 244.541 68.0523 245.368 68.1054C246.194 68.1584 246.994 67.5425 247.154 66.7297L253.529 34.3316ZM243.967 82.9287C244.127 82.1159 243.586 81.4139 242.76 81.3608C241.933 81.3077 241.133 81.9236 240.973 82.7365L237.786 98.9355C237.626 99.7484 238.166 100.45 238.993 100.503C239.82 100.557 240.62 99.9406 240.78 99.1278L243.967 82.9287Z" fill="#252525"/>
</svg>
