<svg width="24" height="25" viewBox="0 0 24 25" fill="none" xmlns="http://www.w3.org/2000/svg">
<path d="M12 17.9248C12.2833 17.9248 12.5208 17.829 12.7125 17.6373C12.9042 17.4456 13 17.2081 13 16.9248C13 16.6415 12.9042 16.404 12.7125 16.2123C12.5208 16.0206 12.2833 15.9248 12 15.9248C11.7167 15.9248 11.4792 16.0206 11.2875 16.2123C11.0958 16.404 11 16.6415 11 16.9248C11 17.2081 11.0958 17.4456 11.2875 17.6373C11.4792 17.829 11.7167 17.9248 12 17.9248ZM11 13.9248H13V7.9248H11V13.9248ZM12 22.9248C10.6167 22.9248 9.31667 22.6623 8.1 22.1373C6.88333 21.6123 5.825 20.8998 4.925 19.9998C4.025 19.0998 3.3125 18.0415 2.7875 16.8248C2.2625 15.6081 2 14.3081 2 12.9248C2 11.5415 2.2625 10.2415 2.7875 9.0248C3.3125 7.80814 4.025 6.7498 4.925 5.8498C5.825 4.9498 6.88333 4.2373 8.1 3.7123C9.31667 3.1873 10.6167 2.9248 12 2.9248C13.3833 2.9248 14.6833 3.1873 15.9 3.7123C17.1167 4.2373 18.175 4.9498 19.075 5.8498C19.975 6.7498 20.6875 7.80814 21.2125 9.0248C21.7375 10.2415 22 11.5415 22 12.9248C22 14.3081 21.7375 15.6081 21.2125 16.8248C20.6875 18.0415 19.975 19.0998 19.075 19.9998C18.175 20.8998 17.1167 21.6123 15.9 22.1373C14.6833 22.6623 13.3833 22.9248 12 22.9248Z" fill="#6F6F6F"/>
</svg>
